<svg width="520" height="121" viewBox="0 0 520 121" fill="none" xmlns="http://www.w3.org/2000/svg">
<rect width="310" height="1" transform="matrix(1 0 0 -1 105 43.5)" fill="#E4E4E4"/>
<g clip-path="url(#clip0_7346_3397)">
<g clip-path="url(#clip1_7346_3397)">
<rect x="95" y="28.5" width="32" height="32" rx="16" fill="#4AAF47"/>
<path d="M117.666 39.5L108.5 48.6667L104.333 44.5" stroke="white" stroke-width="2" stroke-linecap="round" stroke-linejoin="round"/>
<path d="M49.5181 90.5V79.156H56.4141V80.612H51.0861V84.1H55.9181V85.572H51.0861V89.044H56.4141V90.5H49.5181ZM59.9246 90.5H58.4206V82.804H59.8926V83.908C60.17 83.428 60.522 83.0867 60.9486 82.884C61.3753 82.6813 61.8126 82.58 62.2606 82.58C62.7193 82.58 63.1193 82.66 63.4606 82.82C63.8126 82.9693 64.1006 83.1827 64.3246 83.46C64.5593 83.7267 64.73 84.0467 64.8366 84.42C64.954 84.7933 65.0126 85.1933 65.0126 85.62V90.5H63.5086V85.876C63.5086 85.6093 63.4766 85.3587 63.4126 85.124C63.3593 84.8893 63.258 84.6867 63.1086 84.516C62.97 84.3347 62.7833 84.196 62.5486 84.1C62.3246 83.9933 62.0473 83.94 61.7166 83.94C61.418 83.94 61.1566 83.9987 60.9326 84.116C60.7086 84.2227 60.522 84.372 60.3726 84.564C60.2233 84.756 60.1113 84.98 60.0366 85.236C59.962 85.492 59.9246 85.764 59.9246 86.052V90.5ZM69.421 82.804H71.085V84.164H69.421V88.164C69.421 88.516 69.501 88.7827 69.661 88.964C69.821 89.1347 70.0983 89.22 70.493 89.22C70.589 89.22 70.6957 89.2147 70.813 89.204C70.9303 89.1933 71.021 89.1773 71.085 89.156V90.436C71.021 90.4573 70.8983 90.484 70.717 90.516C70.5357 90.5587 70.317 90.58 70.061 90.58C69.3997 90.58 68.877 90.3933 68.493 90.02C68.109 89.636 67.917 89.092 67.917 88.388V84.164H66.445V82.804H66.861C67.277 82.804 67.5757 82.692 67.757 82.468C67.949 82.244 68.045 81.9613 68.045 81.62V80.372H69.421V82.804ZM78.1984 85.86C78.177 85.3053 77.9904 84.8413 77.6384 84.468C77.2864 84.084 76.769 83.892 76.0864 83.892C75.7664 83.892 75.4784 83.9507 75.2224 84.068C74.977 84.1747 74.7637 84.324 74.5824 84.516C74.4117 84.6973 74.273 84.9053 74.1664 85.14C74.0597 85.3747 74.001 85.6147 73.9904 85.86H78.1984ZM79.7184 88.308C79.6117 88.6493 79.4517 88.9693 79.2384 89.268C79.0357 89.556 78.785 89.812 78.4864 90.036C78.1984 90.2493 77.8677 90.42 77.4944 90.548C77.121 90.676 76.7104 90.74 76.2624 90.74C75.7504 90.74 75.2597 90.6493 74.7904 90.468C74.321 90.2867 73.905 90.02 73.5424 89.668C73.1904 89.316 72.9077 88.884 72.6944 88.372C72.4917 87.86 72.3904 87.2787 72.3904 86.628C72.3904 86.02 72.4917 85.4707 72.6944 84.98C72.897 84.4787 73.1637 84.052 73.4944 83.7C73.8357 83.3373 74.2304 83.06 74.6784 82.868C75.1264 82.6653 75.5904 82.564 76.0704 82.564C76.657 82.564 77.1797 82.6653 77.6384 82.868C78.1077 83.06 78.497 83.332 78.8064 83.684C79.1157 84.036 79.3504 84.4627 79.5104 84.964C79.681 85.4547 79.7664 85.9987 79.7664 86.596C79.7664 86.692 79.761 86.7827 79.7504 86.868C79.7504 86.9533 79.745 87.0227 79.7344 87.076H73.9424C73.953 87.4173 74.017 87.732 74.1344 88.02C74.2517 88.308 74.4117 88.5587 74.6144 88.772C74.8277 88.9747 75.073 89.1347 75.3504 89.252C75.6384 89.3587 75.9424 89.412 76.2624 89.412C76.8917 89.412 77.3717 89.2627 77.7024 88.964C78.033 88.6653 78.273 88.2973 78.4224 87.86L79.7184 88.308ZM85.9583 84.324C85.7343 84.292 85.5156 84.276 85.3023 84.276C84.6729 84.276 84.1609 84.4627 83.7663 84.836C83.3823 85.1987 83.1903 85.8013 83.1903 86.644V90.5H81.6863V82.804H83.1583V84.148C83.2969 83.8493 83.4569 83.6093 83.6383 83.428C83.8303 83.236 84.0276 83.0867 84.2303 82.98C84.4329 82.8627 84.6409 82.7827 84.8543 82.74C85.0676 82.6973 85.2703 82.676 85.4623 82.676C85.5689 82.676 85.6649 82.6813 85.7503 82.692C85.8463 82.7027 85.9156 82.7133 85.9583 82.724V84.324ZM91.7213 90.5V79.156H93.3213V90.5H91.7213ZM97.5496 90.5H96.0456V82.804H97.5176V83.908C97.795 83.428 98.147 83.0867 98.5736 82.884C99.0003 82.6813 99.4376 82.58 99.8856 82.58C100.344 82.58 100.744 82.66 101.086 82.82C101.438 82.9693 101.726 83.1827 101.95 83.46C102.184 83.7267 102.355 84.0467 102.462 84.42C102.579 84.7933 102.638 85.1933 102.638 85.62V90.5H101.134V85.876C101.134 85.6093 101.102 85.3587 101.038 85.124C100.984 84.8893 100.883 84.6867 100.734 84.516C100.595 84.3347 100.408 84.196 100.174 84.1C99.9496 83.9933 99.6723 83.94 99.3416 83.94C99.043 83.94 98.7816 83.9987 98.5576 84.116C98.3336 84.2227 98.147 84.372 97.9976 84.564C97.8483 84.756 97.7363 84.98 97.6616 85.236C97.587 85.492 97.5496 85.764 97.5496 86.052V90.5ZM107.046 84.164V90.5H105.494V84.164H104.07V82.804H105.494V81.508C105.494 81.0813 105.558 80.7027 105.686 80.372C105.825 80.0413 106.006 79.764 106.23 79.54C106.465 79.316 106.731 79.1507 107.03 79.044C107.339 78.9267 107.67 78.868 108.022 78.868C108.278 78.868 108.481 78.8893 108.63 78.932C108.79 78.9747 108.886 79.0067 108.918 79.028V80.372C108.875 80.3507 108.801 80.3293 108.694 80.308C108.598 80.2867 108.454 80.276 108.262 80.276C108.134 80.276 107.995 80.2973 107.846 80.34C107.707 80.372 107.574 80.436 107.446 80.532C107.329 80.628 107.233 80.7613 107.158 80.932C107.083 81.1027 107.046 81.3213 107.046 81.588V82.804H108.902V84.164H107.046ZM113.498 89.396C113.818 89.396 114.122 89.3373 114.41 89.22C114.698 89.1027 114.954 88.9267 115.178 88.692C115.402 88.4573 115.578 88.1693 115.706 87.828C115.834 87.4867 115.898 87.092 115.898 86.644C115.898 86.196 115.834 85.8067 115.706 85.476C115.578 85.1347 115.402 84.8467 115.178 84.612C114.954 84.3773 114.698 84.2013 114.41 84.084C114.122 83.9667 113.818 83.908 113.498 83.908C113.178 83.908 112.874 83.9667 112.586 84.084C112.298 84.2013 112.042 84.3773 111.818 84.612C111.594 84.8467 111.418 85.1347 111.29 85.476C111.162 85.8067 111.098 86.196 111.098 86.644C111.098 87.092 111.162 87.4867 111.29 87.828C111.418 88.1693 111.594 88.4573 111.818 88.692C112.042 88.9267 112.298 89.1027 112.586 89.22C112.874 89.3373 113.178 89.396 113.498 89.396ZM113.498 82.564C114.074 82.564 114.602 82.6707 115.082 82.884C115.562 83.0867 115.978 83.3693 116.33 83.732C116.682 84.0947 116.954 84.5267 117.146 85.028C117.338 85.5187 117.434 86.0573 117.434 86.644C117.434 87.2307 117.338 87.7747 117.146 88.276C116.954 88.7773 116.682 89.2093 116.33 89.572C115.978 89.9347 115.562 90.2227 115.082 90.436C114.602 90.6387 114.074 90.74 113.498 90.74C112.922 90.74 112.394 90.6387 111.914 90.436C111.434 90.2227 111.018 89.9347 110.666 89.572C110.314 89.2093 110.042 88.7773 109.85 88.276C109.658 87.7747 109.562 87.2307 109.562 86.644C109.562 86.0573 109.658 85.5187 109.85 85.028C110.042 84.5267 110.314 84.0947 110.666 83.732C111.018 83.3693 111.434 83.0867 111.914 82.884C112.394 82.6707 112.922 82.564 113.498 82.564ZM123.63 84.324C123.406 84.292 123.187 84.276 122.974 84.276C122.345 84.276 121.833 84.4627 121.438 84.836C121.054 85.1987 120.862 85.8013 120.862 86.644V90.5H119.358V82.804H120.83V84.148C120.969 83.8493 121.129 83.6093 121.31 83.428C121.502 83.236 121.699 83.0867 121.902 82.98C122.105 82.8627 122.313 82.7827 122.526 82.74C122.739 82.6973 122.942 82.676 123.134 82.676C123.241 82.676 123.337 82.6813 123.422 82.692C123.518 82.7027 123.587 82.7133 123.63 82.724V84.324ZM125.233 90.5V82.804H126.673V83.828C126.918 83.4013 127.254 83.0867 127.681 82.884C128.118 82.6813 128.561 82.58 129.009 82.58C129.489 82.58 129.937 82.6973 130.353 82.932C130.78 83.1667 131.1 83.5347 131.313 84.036C131.622 83.4813 132.006 83.1027 132.465 82.9C132.924 82.6867 133.398 82.58 133.889 82.58C134.22 82.58 134.545 82.6387 134.865 82.756C135.185 82.8733 135.468 83.0547 135.713 83.3C135.969 83.5347 136.172 83.8387 136.321 84.212C136.47 84.5747 136.545 85.0067 136.545 85.508V90.5H135.057V85.668C135.057 85.1667 134.924 84.7507 134.657 84.42C134.401 84.0787 133.99 83.908 133.425 83.908C132.892 83.908 132.46 84.0947 132.129 84.468C131.809 84.8307 131.649 85.2893 131.649 85.844V90.5H130.145V85.668C130.145 85.1667 130.017 84.7507 129.761 84.42C129.505 84.0787 129.089 83.908 128.513 83.908C127.969 83.908 127.532 84.0893 127.201 84.452C126.881 84.8147 126.721 85.284 126.721 85.86V90.5H125.233ZM138.472 88.436C138.472 88.0947 138.531 87.7907 138.648 87.524C138.765 87.2467 138.925 87.012 139.128 86.82C139.341 86.628 139.592 86.4733 139.88 86.356C140.168 86.2387 140.477 86.1533 140.808 86.1L142.888 85.796C143.123 85.764 143.277 85.6947 143.352 85.588C143.437 85.4813 143.48 85.3587 143.48 85.22C143.48 84.8467 143.347 84.5267 143.08 84.26C142.824 83.9827 142.403 83.844 141.816 83.844C141.283 83.844 140.872 83.9933 140.584 84.292C140.296 84.58 140.125 84.948 140.072 85.396L138.632 85.06C138.675 84.6973 138.781 84.3613 138.952 84.052C139.133 83.7427 139.363 83.4813 139.64 83.268C139.917 83.044 140.237 82.8733 140.6 82.756C140.973 82.628 141.368 82.564 141.784 82.564C142.36 82.564 142.851 82.644 143.256 82.804C143.661 82.9533 143.992 83.156 144.248 83.412C144.504 83.668 144.691 83.9667 144.808 84.308C144.925 84.6493 144.984 85.0067 144.984 85.38V89.236C144.984 89.5773 144.995 89.8493 145.016 90.052C145.037 90.2547 145.059 90.404 145.08 90.5H143.608C143.587 90.404 143.565 90.276 143.544 90.116C143.533 89.956 143.528 89.7373 143.528 89.46C143.443 89.5987 143.331 89.7427 143.192 89.892C143.053 90.0413 142.883 90.18 142.68 90.308C142.477 90.436 142.237 90.5373 141.96 90.612C141.693 90.6973 141.389 90.74 141.048 90.74C140.653 90.74 140.296 90.676 139.976 90.548C139.667 90.42 139.4 90.2547 139.176 90.052C138.952 89.8387 138.776 89.5933 138.648 89.316C138.531 89.0387 138.472 88.7453 138.472 88.436ZM141.256 89.476C141.565 89.476 141.853 89.4387 142.12 89.364C142.397 89.2787 142.632 89.1507 142.824 88.98C143.027 88.7987 143.187 88.564 143.304 88.276C143.421 87.9773 143.48 87.62 143.48 87.204V86.852L141.128 87.204C140.808 87.2573 140.541 87.38 140.328 87.572C140.115 87.7533 140.008 88.0147 140.008 88.356C140.008 88.644 140.12 88.9053 140.344 89.14C140.568 89.364 140.872 89.476 141.256 89.476ZM149.343 82.804H151.007V84.164H149.343V88.164C149.343 88.516 149.423 88.7827 149.583 88.964C149.743 89.1347 150.02 89.22 150.415 89.22C150.511 89.22 150.618 89.2147 150.735 89.204C150.852 89.1933 150.943 89.1773 151.007 89.156V90.436C150.943 90.4573 150.82 90.484 150.639 90.516C150.458 90.5587 150.239 90.58 149.983 90.58C149.322 90.58 148.799 90.3933 148.415 90.02C148.031 89.636 147.839 89.092 147.839 88.388V84.164H146.367V82.804H146.783C147.199 82.804 147.498 82.692 147.679 82.468C147.871 82.244 147.967 81.9613 147.967 81.62V80.372H149.343V82.804ZM153.014 90.5V82.804H154.502V90.5H153.014ZM152.678 79.892C152.678 79.5827 152.78 79.3267 152.982 79.124C153.196 78.9107 153.452 78.804 153.75 78.804C154.06 78.804 154.316 78.9107 154.518 79.124C154.732 79.3267 154.838 79.5827 154.838 79.892C154.838 80.1907 154.732 80.4467 154.518 80.66C154.316 80.8627 154.06 80.964 153.75 80.964C153.452 80.964 153.196 80.8627 152.982 80.66C152.78 80.4467 152.678 80.1907 152.678 79.892ZM160.357 89.396C160.677 89.396 160.981 89.3373 161.269 89.22C161.557 89.1027 161.813 88.9267 162.037 88.692C162.261 88.4573 162.437 88.1693 162.565 87.828C162.693 87.4867 162.757 87.092 162.757 86.644C162.757 86.196 162.693 85.8067 162.565 85.476C162.437 85.1347 162.261 84.8467 162.037 84.612C161.813 84.3773 161.557 84.2013 161.269 84.084C160.981 83.9667 160.677 83.908 160.357 83.908C160.037 83.908 159.733 83.9667 159.445 84.084C159.157 84.2013 158.901 84.3773 158.677 84.612C158.453 84.8467 158.277 85.1347 158.149 85.476C158.021 85.8067 157.957 86.196 157.957 86.644C157.957 87.092 158.021 87.4867 158.149 87.828C158.277 88.1693 158.453 88.4573 158.677 88.692C158.901 88.9267 159.157 89.1027 159.445 89.22C159.733 89.3373 160.037 89.396 160.357 89.396ZM160.357 82.564C160.933 82.564 161.461 82.6707 161.941 82.884C162.421 83.0867 162.837 83.3693 163.189 83.732C163.541 84.0947 163.813 84.5267 164.005 85.028C164.197 85.5187 164.293 86.0573 164.293 86.644C164.293 87.2307 164.197 87.7747 164.005 88.276C163.813 88.7773 163.541 89.2093 163.189 89.572C162.837 89.9347 162.421 90.2227 161.941 90.436C161.461 90.6387 160.933 90.74 160.357 90.74C159.781 90.74 159.253 90.6387 158.773 90.436C158.293 90.2227 157.877 89.9347 157.525 89.572C157.173 89.2093 156.901 88.7773 156.709 88.276C156.517 87.7747 156.421 87.2307 156.421 86.644C156.421 86.0573 156.517 85.5187 156.709 85.028C156.901 84.5267 157.173 84.0947 157.525 83.732C157.877 83.3693 158.293 83.0867 158.773 82.884C159.253 82.6707 159.781 82.564 160.357 82.564ZM167.722 90.5H166.218V82.804H167.69V83.908C167.967 83.428 168.319 83.0867 168.746 82.884C169.172 82.6813 169.61 82.58 170.058 82.58C170.516 82.58 170.916 82.66 171.258 82.82C171.61 82.9693 171.898 83.1827 172.122 83.46C172.356 83.7267 172.527 84.0467 172.634 84.42C172.751 84.7933 172.81 85.1933 172.81 85.62V90.5H171.306V85.876C171.306 85.6093 171.274 85.3587 171.21 85.124C171.156 84.8893 171.055 84.6867 170.906 84.516C170.767 84.3347 170.58 84.196 170.346 84.1C170.122 83.9933 169.844 83.94 169.514 83.94C169.215 83.94 168.954 83.9987 168.73 84.116C168.506 84.2227 168.319 84.372 168.17 84.564C168.02 84.756 167.908 84.98 167.834 85.236C167.759 85.492 167.722 85.764 167.722 86.052V90.5Z" fill="#505565"/>
</g>
<g clip-path="url(#clip2_7346_3397)">
<rect x="398" y="29" width="31" height="31" rx="15.5" fill="white"/>
<path d="M409.954 43.668C409.943 43.5933 409.938 43.524 409.938 43.46C409.938 43.3853 409.938 43.316 409.938 43.252C409.938 42.804 410.018 42.3773 410.178 41.972C410.338 41.5667 410.567 41.2093 410.866 40.9C411.175 40.5907 411.554 40.3453 412.002 40.164C412.45 39.9827 412.956 39.892 413.522 39.892C414.076 39.892 414.572 39.9773 415.01 40.148C415.447 40.3187 415.815 40.548 416.114 40.836C416.412 41.124 416.636 41.4653 416.786 41.86C416.946 42.244 417.026 42.6493 417.026 43.076C417.026 43.7587 416.85 44.372 416.498 44.916C416.146 45.4493 415.671 45.9027 415.074 46.276L413.026 47.588C412.727 47.78 412.46 47.9933 412.226 48.228C411.991 48.452 411.836 48.724 411.762 49.044H417.09V50.5H409.826C409.836 50.0733 409.884 49.6733 409.97 49.3C410.066 48.9267 410.21 48.5693 410.402 48.228C410.604 47.8867 410.86 47.5667 411.17 47.268C411.479 46.9587 411.852 46.66 412.29 46.372L414.018 45.252C414.508 44.9427 414.866 44.6067 415.09 44.244C415.324 43.8813 415.442 43.4973 415.442 43.092C415.442 42.8573 415.399 42.6333 415.314 42.42C415.239 42.196 415.122 41.9987 414.962 41.828C414.802 41.6573 414.599 41.524 414.354 41.428C414.108 41.3213 413.82 41.268 413.49 41.268C413.148 41.268 412.85 41.3267 412.594 41.444C412.348 41.5507 412.14 41.7 411.97 41.892C411.81 42.084 411.687 42.308 411.602 42.564C411.527 42.82 411.49 43.0973 411.49 43.396C411.49 43.4707 411.49 43.5453 411.49 43.62C411.5 43.6947 411.511 43.7747 411.522 43.86L409.954 43.668Z" fill="#909090"/>
<rect x="398" y="29" width="31" height="31" rx="15.5" stroke="#E4E4E4"/>
<path d="M360.624 84.452C361.306 84.452 361.84 84.2813 362.224 83.94C362.618 83.588 362.816 83.1187 362.816 82.532C362.816 81.924 362.618 81.444 362.224 81.092C361.84 80.74 361.306 80.564 360.624 80.564H358.352V84.452H360.624ZM358.352 85.86V90.5H356.784V79.156H360.912C361.434 79.156 361.909 79.2413 362.336 79.412C362.773 79.5827 363.141 79.8227 363.44 80.132C363.749 80.4307 363.989 80.7827 364.16 81.188C364.33 81.5933 364.416 82.036 364.416 82.516C364.416 82.996 364.33 83.444 364.16 83.86C363.989 84.2653 363.749 84.6173 363.44 84.916C363.141 85.204 362.773 85.4333 362.336 85.604C361.909 85.7747 361.434 85.86 360.912 85.86H358.352ZM365.206 88.436C365.206 88.0947 365.265 87.7907 365.382 87.524C365.5 87.2467 365.66 87.012 365.862 86.82C366.076 86.628 366.326 86.4733 366.614 86.356C366.902 86.2387 367.212 86.1533 367.542 86.1L369.622 85.796C369.857 85.764 370.012 85.6947 370.086 85.588C370.172 85.4813 370.214 85.3587 370.214 85.22C370.214 84.8467 370.081 84.5267 369.814 84.26C369.558 83.9827 369.137 83.844 368.55 83.844C368.017 83.844 367.606 83.9933 367.318 84.292C367.03 84.58 366.86 84.948 366.806 85.396L365.366 85.06C365.409 84.6973 365.516 84.3613 365.686 84.052C365.868 83.7427 366.097 83.4813 366.374 83.268C366.652 83.044 366.972 82.8733 367.334 82.756C367.708 82.628 368.102 82.564 368.518 82.564C369.094 82.564 369.585 82.644 369.99 82.804C370.396 82.9533 370.726 83.156 370.982 83.412C371.238 83.668 371.425 83.9667 371.542 84.308C371.66 84.6493 371.718 85.0067 371.718 85.38V89.236C371.718 89.5773 371.729 89.8493 371.75 90.052C371.772 90.2547 371.793 90.404 371.814 90.5H370.342C370.321 90.404 370.3 90.276 370.278 90.116C370.268 89.956 370.262 89.7373 370.262 89.46C370.177 89.5987 370.065 89.7427 369.926 89.892C369.788 90.0413 369.617 90.18 369.414 90.308C369.212 90.436 368.972 90.5373 368.694 90.612C368.428 90.6973 368.124 90.74 367.782 90.74C367.388 90.74 367.03 90.676 366.71 90.548C366.401 90.42 366.134 90.2547 365.91 90.052C365.686 89.8387 365.51 89.5933 365.382 89.316C365.265 89.0387 365.206 88.7453 365.206 88.436ZM367.99 89.476C368.3 89.476 368.588 89.4387 368.854 89.364C369.132 89.2787 369.366 89.1507 369.558 88.98C369.761 88.7987 369.921 88.564 370.038 88.276C370.156 87.9773 370.214 87.62 370.214 87.204V86.852L367.862 87.204C367.542 87.2573 367.276 87.38 367.062 87.572C366.849 87.7533 366.742 88.0147 366.742 88.356C366.742 88.644 366.854 88.9053 367.078 89.14C367.302 89.364 367.606 89.476 367.99 89.476ZM374.177 93.716L376.097 89.652L372.785 82.804H374.513L376.913 88.116L379.217 82.804H380.833L375.825 93.716H374.177ZM382.28 90.5V82.804H383.72V83.828C383.965 83.4013 384.301 83.0867 384.728 82.884C385.165 82.6813 385.608 82.58 386.056 82.58C386.536 82.58 386.984 82.6973 387.4 82.932C387.827 83.1667 388.147 83.5347 388.36 84.036C388.669 83.4813 389.053 83.1027 389.512 82.9C389.971 82.6867 390.445 82.58 390.936 82.58C391.267 82.58 391.592 82.6387 391.912 82.756C392.232 82.8733 392.515 83.0547 392.76 83.3C393.016 83.5347 393.219 83.8387 393.368 84.212C393.517 84.5747 393.592 85.0067 393.592 85.508V90.5H392.104V85.668C392.104 85.1667 391.971 84.7507 391.704 84.42C391.448 84.0787 391.037 83.908 390.472 83.908C389.939 83.908 389.507 84.0947 389.176 84.468C388.856 84.8307 388.696 85.2893 388.696 85.844V90.5H387.192V85.668C387.192 85.1667 387.064 84.7507 386.808 84.42C386.552 84.0787 386.136 83.908 385.56 83.908C385.016 83.908 384.579 84.0893 384.248 84.452C383.928 84.8147 383.768 85.284 383.768 85.86V90.5H382.28ZM401.183 85.86C401.161 85.3053 400.975 84.8413 400.623 84.468C400.271 84.084 399.753 83.892 399.071 83.892C398.751 83.892 398.463 83.9507 398.207 84.068C397.961 84.1747 397.748 84.324 397.567 84.516C397.396 84.6973 397.257 84.9053 397.151 85.14C397.044 85.3747 396.985 85.6147 396.975 85.86H401.183ZM402.703 88.308C402.596 88.6493 402.436 88.9693 402.223 89.268C402.02 89.556 401.769 89.812 401.471 90.036C401.183 90.2493 400.852 90.42 400.479 90.548C400.105 90.676 399.695 90.74 399.247 90.74C398.735 90.74 398.244 90.6493 397.775 90.468C397.305 90.2867 396.889 90.02 396.527 89.668C396.175 89.316 395.892 88.884 395.679 88.372C395.476 87.86 395.375 87.2787 395.375 86.628C395.375 86.02 395.476 85.4707 395.679 84.98C395.881 84.4787 396.148 84.052 396.479 83.7C396.82 83.3373 397.215 83.06 397.663 82.868C398.111 82.6653 398.575 82.564 399.055 82.564C399.641 82.564 400.164 82.6653 400.623 82.868C401.092 83.06 401.481 83.332 401.791 83.684C402.1 84.036 402.335 84.4627 402.495 84.964C402.665 85.4547 402.751 85.9987 402.751 86.596C402.751 86.692 402.745 86.7827 402.735 86.868C402.735 86.9533 402.729 87.0227 402.719 87.076H396.927C396.937 87.4173 397.001 87.732 397.119 88.02C397.236 88.308 397.396 88.5587 397.599 88.772C397.812 88.9747 398.057 89.1347 398.335 89.252C398.623 89.3587 398.927 89.412 399.247 89.412C399.876 89.412 400.356 89.2627 400.687 88.964C401.017 88.6653 401.257 88.2973 401.407 87.86L402.703 88.308ZM406.175 90.5H404.671V82.804H406.143V83.908C406.42 83.428 406.772 83.0867 407.199 82.884C407.625 82.6813 408.063 82.58 408.511 82.58C408.969 82.58 409.369 82.66 409.711 82.82C410.063 82.9693 410.351 83.1827 410.575 83.46C410.809 83.7267 410.98 84.0467 411.087 84.42C411.204 84.7933 411.263 85.1933 411.263 85.62V90.5H409.759V85.876C409.759 85.6093 409.727 85.3587 409.663 85.124C409.609 84.8893 409.508 84.6867 409.359 84.516C409.22 84.3347 409.033 84.196 408.799 84.1C408.575 83.9933 408.297 83.94 407.967 83.94C407.668 83.94 407.407 83.9987 407.183 84.116C406.959 84.2227 406.772 84.372 406.623 84.564C406.473 84.756 406.361 84.98 406.287 85.236C406.212 85.492 406.175 85.764 406.175 86.052V90.5ZM415.671 82.804H417.335V84.164H415.671V88.164C415.671 88.516 415.751 88.7827 415.911 88.964C416.071 89.1347 416.348 89.22 416.743 89.22C416.839 89.22 416.946 89.2147 417.063 89.204C417.18 89.1933 417.271 89.1773 417.335 89.156V90.436C417.271 90.4573 417.148 90.484 416.967 90.516C416.786 90.5587 416.567 90.58 416.311 90.58C415.65 90.58 415.127 90.3933 414.743 90.02C414.359 89.636 414.167 89.092 414.167 88.388V84.164H412.695V82.804H413.111C413.527 82.804 413.826 82.692 414.007 82.468C414.199 82.244 414.295 81.9613 414.295 81.62V80.372H415.671V82.804ZM427.391 89.108C427.913 89.108 428.409 89.0227 428.879 88.852C429.348 88.6707 429.759 88.404 430.111 88.052C430.463 87.7 430.74 87.2573 430.943 86.724C431.145 86.1907 431.247 85.5667 431.247 84.852C431.247 84.1373 431.145 83.5133 430.943 82.98C430.74 82.436 430.463 81.988 430.111 81.636C429.769 81.2733 429.364 81.0013 428.895 80.82C428.436 80.6387 427.945 80.548 427.423 80.548H425.071V89.108H427.391ZM423.503 90.5V79.156H427.471C428.185 79.156 428.868 79.2787 429.519 79.524C430.18 79.7693 430.756 80.132 431.247 80.612C431.737 81.092 432.127 81.6893 432.415 82.404C432.713 83.108 432.863 83.924 432.863 84.852C432.863 85.78 432.713 86.596 432.415 87.3C432.127 88.004 431.732 88.596 431.231 89.076C430.729 89.5453 430.148 89.9027 429.487 90.148C428.836 90.3827 428.153 90.5 427.439 90.5H423.503ZM440.042 85.86C440.021 85.3053 439.834 84.8413 439.482 84.468C439.13 84.084 438.613 83.892 437.93 83.892C437.61 83.892 437.322 83.9507 437.066 84.068C436.821 84.1747 436.607 84.324 436.426 84.516C436.255 84.6973 436.117 84.9053 436.01 85.14C435.903 85.3747 435.845 85.6147 435.834 85.86H440.042ZM441.562 88.308C441.455 88.6493 441.295 88.9693 441.082 89.268C440.879 89.556 440.629 89.812 440.33 90.036C440.042 90.2493 439.711 90.42 439.338 90.548C438.965 90.676 438.554 90.74 438.106 90.74C437.594 90.74 437.103 90.6493 436.634 90.468C436.165 90.2867 435.749 90.02 435.386 89.668C435.034 89.316 434.751 88.884 434.538 88.372C434.335 87.86 434.234 87.2787 434.234 86.628C434.234 86.02 434.335 85.4707 434.538 84.98C434.741 84.4787 435.007 84.052 435.338 83.7C435.679 83.3373 436.074 83.06 436.522 82.868C436.97 82.6653 437.434 82.564 437.914 82.564C438.501 82.564 439.023 82.6653 439.482 82.868C439.951 83.06 440.341 83.332 440.65 83.684C440.959 84.036 441.194 84.4627 441.354 84.964C441.525 85.4547 441.61 85.9987 441.61 86.596C441.61 86.692 441.605 86.7827 441.594 86.868C441.594 86.9533 441.589 87.0227 441.578 87.076H435.786C435.797 87.4173 435.861 87.732 435.978 88.02C436.095 88.308 436.255 88.5587 436.458 88.772C436.671 88.9747 436.917 89.1347 437.194 89.252C437.482 89.3587 437.786 89.412 438.106 89.412C438.735 89.412 439.215 89.2627 439.546 88.964C439.877 88.6653 440.117 88.2973 440.266 87.86L441.562 88.308ZM445.546 82.804H447.21V84.164H445.546V88.164C445.546 88.516 445.626 88.7827 445.786 88.964C445.946 89.1347 446.223 89.22 446.618 89.22C446.714 89.22 446.821 89.2147 446.938 89.204C447.055 89.1933 447.146 89.1773 447.21 89.156V90.436C447.146 90.4573 447.023 90.484 446.842 90.516C446.661 90.5587 446.442 90.58 446.186 90.58C445.525 90.58 445.002 90.3933 444.618 90.02C444.234 89.636 444.042 89.092 444.042 88.388V84.164H442.57V82.804H442.986C443.402 82.804 443.701 82.692 443.882 82.468C444.074 82.244 444.17 81.9613 444.17 81.62V80.372H445.546V82.804ZM448.738 88.436C448.738 88.0947 448.796 87.7907 448.914 87.524C449.031 87.2467 449.191 87.012 449.394 86.82C449.607 86.628 449.858 86.4733 450.146 86.356C450.434 86.2387 450.743 86.1533 451.074 86.1L453.154 85.796C453.388 85.764 453.543 85.6947 453.618 85.588C453.703 85.4813 453.746 85.3587 453.746 85.22C453.746 84.8467 453.612 84.5267 453.346 84.26C453.09 83.9827 452.668 83.844 452.082 83.844C451.548 83.844 451.138 83.9933 450.85 84.292C450.562 84.58 450.391 84.948 450.338 85.396L448.898 85.06C448.94 84.6973 449.047 84.3613 449.218 84.052C449.399 83.7427 449.628 83.4813 449.906 83.268C450.183 83.044 450.503 82.8733 450.866 82.756C451.239 82.628 451.634 82.564 452.049 82.564C452.626 82.564 453.116 82.644 453.522 82.804C453.927 82.9533 454.258 83.156 454.514 83.412C454.77 83.668 454.956 83.9667 455.074 84.308C455.191 84.6493 455.25 85.0067 455.25 85.38V89.236C455.25 89.5773 455.26 89.8493 455.282 90.052C455.303 90.2547 455.324 90.404 455.346 90.5H453.874C453.852 90.404 453.831 90.276 453.81 90.116C453.799 89.956 453.794 89.7373 453.794 89.46C453.708 89.5987 453.596 89.7427 453.458 89.892C453.319 90.0413 453.148 90.18 452.946 90.308C452.743 90.436 452.503 90.5373 452.226 90.612C451.959 90.6973 451.655 90.74 451.314 90.74C450.919 90.74 450.562 90.676 450.242 90.548C449.932 90.42 449.666 90.2547 449.442 90.052C449.218 89.8387 449.042 89.5933 448.914 89.316C448.796 89.0387 448.738 88.7453 448.738 88.436ZM451.522 89.476C451.831 89.476 452.119 89.4387 452.386 89.364C452.663 89.2787 452.898 89.1507 453.09 88.98C453.292 88.7987 453.452 88.564 453.57 88.276C453.687 87.9773 453.746 87.62 453.746 87.204V86.852L451.394 87.204C451.074 87.2573 450.807 87.38 450.594 87.572C450.38 87.7533 450.274 88.0147 450.274 88.356C450.274 88.644 450.386 88.9053 450.61 89.14C450.834 89.364 451.138 89.476 451.522 89.476ZM457.593 90.5V82.804H459.081V90.5H457.593ZM457.257 79.892C457.257 79.5827 457.358 79.3267 457.561 79.124C457.774 78.9107 458.03 78.804 458.329 78.804C458.638 78.804 458.894 78.9107 459.097 79.124C459.31 79.3267 459.417 79.5827 459.417 79.892C459.417 80.1907 459.31 80.4467 459.097 80.66C458.894 80.8627 458.638 80.964 458.329 80.964C458.03 80.964 457.774 80.8627 457.561 80.66C457.358 80.4467 457.257 80.1907 457.257 79.892ZM461.639 90.5V78.916H463.143V90.5H461.639ZM466.342 88.02C466.395 88.4253 466.571 88.7667 466.87 89.044C467.169 89.3213 467.59 89.46 468.134 89.46C468.561 89.46 468.886 89.3587 469.11 89.156C469.334 88.9533 469.446 88.7133 469.446 88.436C469.446 88.1907 469.361 87.9827 469.19 87.812C469.019 87.6413 468.774 87.5187 468.454 87.444L467.142 87.156C466.534 87.028 466.059 86.772 465.718 86.388C465.387 86.004 465.222 85.54 465.222 84.996C465.222 84.6653 465.291 84.356 465.43 84.068C465.579 83.7693 465.777 83.508 466.022 83.284C466.267 83.06 466.555 82.884 466.886 82.756C467.227 82.628 467.585 82.564 467.958 82.564C468.481 82.564 468.918 82.6387 469.27 82.788C469.633 82.9373 469.926 83.124 470.15 83.348C470.374 83.5613 470.539 83.7853 470.646 84.02C470.763 84.2547 470.843 84.4573 470.886 84.628L469.558 85.124C469.537 85.028 469.499 84.9053 469.446 84.756C469.393 84.6067 469.307 84.468 469.19 84.34C469.073 84.2013 468.913 84.084 468.71 83.988C468.507 83.892 468.257 83.844 467.958 83.844C467.574 83.844 467.265 83.9507 467.03 84.164C466.795 84.3667 466.678 84.6013 466.678 84.868C466.678 85.3587 466.971 85.668 467.558 85.796L468.806 86.068C469.51 86.2173 470.038 86.4947 470.39 86.9C470.753 87.2947 470.934 87.78 470.934 88.356C470.934 88.6333 470.875 88.9107 470.758 89.188C470.641 89.4653 470.465 89.7213 470.23 89.956C470.006 90.1907 469.718 90.3773 469.366 90.516C469.014 90.6653 468.598 90.74 468.118 90.74C467.585 90.74 467.126 90.6653 466.742 90.516C466.369 90.3667 466.054 90.18 465.798 89.956C465.553 89.732 465.361 89.492 465.222 89.236C465.094 88.9693 465.014 88.724 464.982 88.5L466.342 88.02Z" fill="#505565"/>
</g>
</g>
<defs>
<clipPath id="clip0_7346_3397">
<rect width="520" height="64" fill="white" transform="translate(0 28.5)"/>
</clipPath>
<clipPath id="clip1_7346_3397">
<rect width="126" height="64" fill="white" transform="translate(48 28.5)"/>
</clipPath>
<clipPath id="clip2_7346_3397">
<rect width="117" height="64" fill="white" transform="translate(355 28.5)"/>
</clipPath>
</defs>
</svg>
