<svg width="520" height="120" viewBox="0 0 520 120" fill="none" xmlns="http://www.w3.org/2000/svg">
<rect width="310" height="1" transform="matrix(1 0 0 -1 105 43)" fill="#E4E4E4"/>
<rect x="95" y="28" width="32" height="32" rx="16" fill="#4AAF47"/>
<path d="M117.666 39L108.5 48.1667L104.333 44" stroke="white" stroke-width="2" stroke-linecap="round" stroke-linejoin="round"/>
<path d="M49.5181 90V78.656H56.4141V80.112H51.0861V83.6H55.9181V85.072H51.0861V88.544H56.4141V90H49.5181ZM59.9246 90H58.4206V82.304H59.8926V83.408C60.17 82.928 60.522 82.5867 60.9486 82.384C61.3753 82.1813 61.8126 82.08 62.2606 82.08C62.7193 82.08 63.1193 82.16 63.4606 82.32C63.8126 82.4693 64.1006 82.6827 64.3246 82.96C64.5593 83.2267 64.73 83.5467 64.8366 83.92C64.954 84.2933 65.0126 84.6933 65.0126 85.12V90H63.5086V85.376C63.5086 85.1093 63.4766 84.8587 63.4126 84.624C63.3593 84.3893 63.258 84.1867 63.1086 84.016C62.97 83.8347 62.7833 83.696 62.5486 83.6C62.3246 83.4933 62.0473 83.44 61.7166 83.44C61.418 83.44 61.1566 83.4987 60.9326 83.616C60.7086 83.7227 60.522 83.872 60.3726 84.064C60.2233 84.256 60.1113 84.48 60.0366 84.736C59.962 84.992 59.9246 85.264 59.9246 85.552V90ZM69.421 82.304H71.085V83.664H69.421V87.664C69.421 88.016 69.501 88.2827 69.661 88.464C69.821 88.6347 70.0983 88.72 70.493 88.72C70.589 88.72 70.6957 88.7147 70.813 88.704C70.9303 88.6933 71.021 88.6773 71.085 88.656V89.936C71.021 89.9573 70.8983 89.984 70.717 90.016C70.5357 90.0587 70.317 90.08 70.061 90.08C69.3997 90.08 68.877 89.8933 68.493 89.52C68.109 89.136 67.917 88.592 67.917 87.888V83.664H66.445V82.304H66.861C67.277 82.304 67.5757 82.192 67.757 81.968C67.949 81.744 68.045 81.4613 68.045 81.12V79.872H69.421V82.304ZM78.1984 85.36C78.177 84.8053 77.9904 84.3413 77.6384 83.968C77.2864 83.584 76.769 83.392 76.0864 83.392C75.7664 83.392 75.4784 83.4507 75.2224 83.568C74.977 83.6747 74.7637 83.824 74.5824 84.016C74.4117 84.1973 74.273 84.4053 74.1664 84.64C74.0597 84.8747 74.001 85.1147 73.9904 85.36H78.1984ZM79.7184 87.808C79.6117 88.1493 79.4517 88.4693 79.2384 88.768C79.0357 89.056 78.785 89.312 78.4864 89.536C78.1984 89.7493 77.8677 89.92 77.4944 90.048C77.121 90.176 76.7104 90.24 76.2624 90.24C75.7504 90.24 75.2597 90.1493 74.7904 89.968C74.321 89.7867 73.905 89.52 73.5424 89.168C73.1904 88.816 72.9077 88.384 72.6944 87.872C72.4917 87.36 72.3904 86.7787 72.3904 86.128C72.3904 85.52 72.4917 84.9707 72.6944 84.48C72.897 83.9787 73.1637 83.552 73.4944 83.2C73.8357 82.8373 74.2304 82.56 74.6784 82.368C75.1264 82.1653 75.5904 82.064 76.0704 82.064C76.657 82.064 77.1797 82.1653 77.6384 82.368C78.1077 82.56 78.497 82.832 78.8064 83.184C79.1157 83.536 79.3504 83.9627 79.5104 84.464C79.681 84.9547 79.7664 85.4987 79.7664 86.096C79.7664 86.192 79.761 86.2827 79.7504 86.368C79.7504 86.4533 79.745 86.5227 79.7344 86.576H73.9424C73.953 86.9173 74.017 87.232 74.1344 87.52C74.2517 87.808 74.4117 88.0587 74.6144 88.272C74.8277 88.4747 75.073 88.6347 75.3504 88.752C75.6384 88.8587 75.9424 88.912 76.2624 88.912C76.8917 88.912 77.3717 88.7627 77.7024 88.464C78.033 88.1653 78.273 87.7973 78.4224 87.36L79.7184 87.808ZM85.9583 83.824C85.7343 83.792 85.5156 83.776 85.3023 83.776C84.6729 83.776 84.1609 83.9627 83.7663 84.336C83.3823 84.6987 83.1903 85.3013 83.1903 86.144V90H81.6863V82.304H83.1583V83.648C83.2969 83.3493 83.4569 83.1093 83.6383 82.928C83.8303 82.736 84.0276 82.5867 84.2303 82.48C84.4329 82.3627 84.6409 82.2827 84.8543 82.24C85.0676 82.1973 85.2703 82.176 85.4623 82.176C85.5689 82.176 85.6649 82.1813 85.7503 82.192C85.8463 82.2027 85.9156 82.2133 85.9583 82.224V83.824ZM91.7213 90V78.656H93.3213V90H91.7213ZM97.5496 90H96.0456V82.304H97.5176V83.408C97.795 82.928 98.147 82.5867 98.5736 82.384C99.0003 82.1813 99.4376 82.08 99.8856 82.08C100.344 82.08 100.744 82.16 101.086 82.32C101.438 82.4693 101.726 82.6827 101.95 82.96C102.184 83.2267 102.355 83.5467 102.462 83.92C102.579 84.2933 102.638 84.6933 102.638 85.12V90H101.134V85.376C101.134 85.1093 101.102 84.8587 101.038 84.624C100.984 84.3893 100.883 84.1867 100.734 84.016C100.595 83.8347 100.408 83.696 100.174 83.6C99.9496 83.4933 99.6723 83.44 99.3416 83.44C99.043 83.44 98.7816 83.4987 98.5576 83.616C98.3336 83.7227 98.147 83.872 97.9976 84.064C97.8483 84.256 97.7363 84.48 97.6616 84.736C97.587 84.992 97.5496 85.264 97.5496 85.552V90ZM107.046 83.664V90H105.494V83.664H104.07V82.304H105.494V81.008C105.494 80.5813 105.558 80.2027 105.686 79.872C105.825 79.5413 106.006 79.264 106.23 79.04C106.465 78.816 106.731 78.6507 107.03 78.544C107.339 78.4267 107.67 78.368 108.022 78.368C108.278 78.368 108.481 78.3893 108.63 78.432C108.79 78.4747 108.886 78.5067 108.918 78.528V79.872C108.875 79.8507 108.801 79.8293 108.694 79.808C108.598 79.7867 108.454 79.776 108.262 79.776C108.134 79.776 107.995 79.7973 107.846 79.84C107.707 79.872 107.574 79.936 107.446 80.032C107.329 80.128 107.233 80.2613 107.158 80.432C107.083 80.6027 107.046 80.8213 107.046 81.088V82.304H108.902V83.664H107.046ZM113.498 88.896C113.818 88.896 114.122 88.8373 114.41 88.72C114.698 88.6027 114.954 88.4267 115.178 88.192C115.402 87.9573 115.578 87.6693 115.706 87.328C115.834 86.9867 115.898 86.592 115.898 86.144C115.898 85.696 115.834 85.3067 115.706 84.976C115.578 84.6347 115.402 84.3467 115.178 84.112C114.954 83.8773 114.698 83.7013 114.41 83.584C114.122 83.4667 113.818 83.408 113.498 83.408C113.178 83.408 112.874 83.4667 112.586 83.584C112.298 83.7013 112.042 83.8773 111.818 84.112C111.594 84.3467 111.418 84.6347 111.29 84.976C111.162 85.3067 111.098 85.696 111.098 86.144C111.098 86.592 111.162 86.9867 111.29 87.328C111.418 87.6693 111.594 87.9573 111.818 88.192C112.042 88.4267 112.298 88.6027 112.586 88.72C112.874 88.8373 113.178 88.896 113.498 88.896ZM113.498 82.064C114.074 82.064 114.602 82.1707 115.082 82.384C115.562 82.5867 115.978 82.8693 116.33 83.232C116.682 83.5947 116.954 84.0267 117.146 84.528C117.338 85.0187 117.434 85.5573 117.434 86.144C117.434 86.7307 117.338 87.2747 117.146 87.776C116.954 88.2773 116.682 88.7093 116.33 89.072C115.978 89.4347 115.562 89.7227 115.082 89.936C114.602 90.1387 114.074 90.24 113.498 90.24C112.922 90.24 112.394 90.1387 111.914 89.936C111.434 89.7227 111.018 89.4347 110.666 89.072C110.314 88.7093 110.042 88.2773 109.85 87.776C109.658 87.2747 109.562 86.7307 109.562 86.144C109.562 85.5573 109.658 85.0187 109.85 84.528C110.042 84.0267 110.314 83.5947 110.666 83.232C111.018 82.8693 111.434 82.5867 111.914 82.384C112.394 82.1707 112.922 82.064 113.498 82.064ZM123.63 83.824C123.406 83.792 123.187 83.776 122.974 83.776C122.345 83.776 121.833 83.9627 121.438 84.336C121.054 84.6987 120.862 85.3013 120.862 86.144V90H119.358V82.304H120.83V83.648C120.969 83.3493 121.129 83.1093 121.31 82.928C121.502 82.736 121.699 82.5867 121.902 82.48C122.105 82.3627 122.313 82.2827 122.526 82.24C122.739 82.1973 122.942 82.176 123.134 82.176C123.241 82.176 123.337 82.1813 123.422 82.192C123.518 82.2027 123.587 82.2133 123.63 82.224V83.824ZM125.233 90V82.304H126.673V83.328C126.918 82.9013 127.254 82.5867 127.681 82.384C128.118 82.1813 128.561 82.08 129.009 82.08C129.489 82.08 129.937 82.1973 130.353 82.432C130.78 82.6667 131.1 83.0347 131.313 83.536C131.622 82.9813 132.006 82.6027 132.465 82.4C132.924 82.1867 133.398 82.08 133.889 82.08C134.22 82.08 134.545 82.1387 134.865 82.256C135.185 82.3733 135.468 82.5547 135.713 82.8C135.969 83.0347 136.172 83.3387 136.321 83.712C136.47 84.0747 136.545 84.5067 136.545 85.008V90H135.057V85.168C135.057 84.6667 134.924 84.2507 134.657 83.92C134.401 83.5787 133.99 83.408 133.425 83.408C132.892 83.408 132.46 83.5947 132.129 83.968C131.809 84.3307 131.649 84.7893 131.649 85.344V90H130.145V85.168C130.145 84.6667 130.017 84.2507 129.761 83.92C129.505 83.5787 129.089 83.408 128.513 83.408C127.969 83.408 127.532 83.5893 127.201 83.952C126.881 84.3147 126.721 84.784 126.721 85.36V90H125.233ZM138.472 87.936C138.472 87.5947 138.531 87.2907 138.648 87.024C138.765 86.7467 138.925 86.512 139.128 86.32C139.341 86.128 139.592 85.9733 139.88 85.856C140.168 85.7387 140.477 85.6533 140.808 85.6L142.888 85.296C143.123 85.264 143.277 85.1947 143.352 85.088C143.437 84.9813 143.48 84.8587 143.48 84.72C143.48 84.3467 143.347 84.0267 143.08 83.76C142.824 83.4827 142.403 83.344 141.816 83.344C141.283 83.344 140.872 83.4933 140.584 83.792C140.296 84.08 140.125 84.448 140.072 84.896L138.632 84.56C138.675 84.1973 138.781 83.8613 138.952 83.552C139.133 83.2427 139.363 82.9813 139.64 82.768C139.917 82.544 140.237 82.3733 140.6 82.256C140.973 82.128 141.368 82.064 141.784 82.064C142.36 82.064 142.851 82.144 143.256 82.304C143.661 82.4533 143.992 82.656 144.248 82.912C144.504 83.168 144.691 83.4667 144.808 83.808C144.925 84.1493 144.984 84.5067 144.984 84.88V88.736C144.984 89.0773 144.995 89.3493 145.016 89.552C145.037 89.7547 145.059 89.904 145.08 90H143.608C143.587 89.904 143.565 89.776 143.544 89.616C143.533 89.456 143.528 89.2373 143.528 88.96C143.443 89.0987 143.331 89.2427 143.192 89.392C143.053 89.5413 142.883 89.68 142.68 89.808C142.477 89.936 142.237 90.0373 141.96 90.112C141.693 90.1973 141.389 90.24 141.048 90.24C140.653 90.24 140.296 90.176 139.976 90.048C139.667 89.92 139.4 89.7547 139.176 89.552C138.952 89.3387 138.776 89.0933 138.648 88.816C138.531 88.5387 138.472 88.2453 138.472 87.936ZM141.256 88.976C141.565 88.976 141.853 88.9387 142.12 88.864C142.397 88.7787 142.632 88.6507 142.824 88.48C143.027 88.2987 143.187 88.064 143.304 87.776C143.421 87.4773 143.48 87.12 143.48 86.704V86.352L141.128 86.704C140.808 86.7573 140.541 86.88 140.328 87.072C140.115 87.2533 140.008 87.5147 140.008 87.856C140.008 88.144 140.12 88.4053 140.344 88.64C140.568 88.864 140.872 88.976 141.256 88.976ZM149.343 82.304H151.007V83.664H149.343V87.664C149.343 88.016 149.423 88.2827 149.583 88.464C149.743 88.6347 150.02 88.72 150.415 88.72C150.511 88.72 150.618 88.7147 150.735 88.704C150.852 88.6933 150.943 88.6773 151.007 88.656V89.936C150.943 89.9573 150.82 89.984 150.639 90.016C150.458 90.0587 150.239 90.08 149.983 90.08C149.322 90.08 148.799 89.8933 148.415 89.52C148.031 89.136 147.839 88.592 147.839 87.888V83.664H146.367V82.304H146.783C147.199 82.304 147.498 82.192 147.679 81.968C147.871 81.744 147.967 81.4613 147.967 81.12V79.872H149.343V82.304ZM153.014 90V82.304H154.502V90H153.014ZM152.678 79.392C152.678 79.0827 152.78 78.8267 152.982 78.624C153.196 78.4107 153.452 78.304 153.75 78.304C154.06 78.304 154.316 78.4107 154.518 78.624C154.732 78.8267 154.838 79.0827 154.838 79.392C154.838 79.6907 154.732 79.9467 154.518 80.16C154.316 80.3627 154.06 80.464 153.75 80.464C153.452 80.464 153.196 80.3627 152.982 80.16C152.78 79.9467 152.678 79.6907 152.678 79.392ZM160.357 88.896C160.677 88.896 160.981 88.8373 161.269 88.72C161.557 88.6027 161.813 88.4267 162.037 88.192C162.261 87.9573 162.437 87.6693 162.565 87.328C162.693 86.9867 162.757 86.592 162.757 86.144C162.757 85.696 162.693 85.3067 162.565 84.976C162.437 84.6347 162.261 84.3467 162.037 84.112C161.813 83.8773 161.557 83.7013 161.269 83.584C160.981 83.4667 160.677 83.408 160.357 83.408C160.037 83.408 159.733 83.4667 159.445 83.584C159.157 83.7013 158.901 83.8773 158.677 84.112C158.453 84.3467 158.277 84.6347 158.149 84.976C158.021 85.3067 157.957 85.696 157.957 86.144C157.957 86.592 158.021 86.9867 158.149 87.328C158.277 87.6693 158.453 87.9573 158.677 88.192C158.901 88.4267 159.157 88.6027 159.445 88.72C159.733 88.8373 160.037 88.896 160.357 88.896ZM160.357 82.064C160.933 82.064 161.461 82.1707 161.941 82.384C162.421 82.5867 162.837 82.8693 163.189 83.232C163.541 83.5947 163.813 84.0267 164.005 84.528C164.197 85.0187 164.293 85.5573 164.293 86.144C164.293 86.7307 164.197 87.2747 164.005 87.776C163.813 88.2773 163.541 88.7093 163.189 89.072C162.837 89.4347 162.421 89.7227 161.941 89.936C161.461 90.1387 160.933 90.24 160.357 90.24C159.781 90.24 159.253 90.1387 158.773 89.936C158.293 89.7227 157.877 89.4347 157.525 89.072C157.173 88.7093 156.901 88.2773 156.709 87.776C156.517 87.2747 156.421 86.7307 156.421 86.144C156.421 85.5573 156.517 85.0187 156.709 84.528C156.901 84.0267 157.173 83.5947 157.525 83.232C157.877 82.8693 158.293 82.5867 158.773 82.384C159.253 82.1707 159.781 82.064 160.357 82.064ZM167.722 90H166.218V82.304H167.69V83.408C167.967 82.928 168.319 82.5867 168.746 82.384C169.172 82.1813 169.61 82.08 170.058 82.08C170.516 82.08 170.916 82.16 171.258 82.32C171.61 82.4693 171.898 82.6827 172.122 82.96C172.356 83.2267 172.527 83.5467 172.634 83.92C172.751 84.2933 172.81 84.6933 172.81 85.12V90H171.306V85.376C171.306 85.1093 171.274 84.8587 171.21 84.624C171.156 84.3893 171.055 84.1867 170.906 84.016C170.767 83.8347 170.58 83.696 170.346 83.6C170.122 83.4933 169.844 83.44 169.514 83.44C169.215 83.44 168.954 83.4987 168.73 83.616C168.506 83.7227 168.319 83.872 168.17 84.064C168.02 84.256 167.908 84.48 167.834 84.736C167.759 84.992 167.722 85.264 167.722 85.552V90Z" fill="#505565"/>
<g clip-path="url(#clip0_7346_3705)">
<rect x="397.5" y="28" width="32" height="32" rx="16" fill="#4AAF47"/>
<path d="M420.166 39L411 48.1667L406.833 44" stroke="white" stroke-width="2" stroke-linecap="round" stroke-linejoin="round"/>
<path d="M360.624 83.952C361.306 83.952 361.84 83.7813 362.224 83.44C362.618 83.088 362.816 82.6187 362.816 82.032C362.816 81.424 362.618 80.944 362.224 80.592C361.84 80.24 361.306 80.064 360.624 80.064H358.352V83.952H360.624ZM358.352 85.36V90H356.784V78.656H360.912C361.434 78.656 361.909 78.7413 362.336 78.912C362.773 79.0827 363.141 79.3227 363.44 79.632C363.749 79.9307 363.989 80.2827 364.16 80.688C364.33 81.0933 364.416 81.536 364.416 82.016C364.416 82.496 364.33 82.944 364.16 83.36C363.989 83.7653 363.749 84.1173 363.44 84.416C363.141 84.704 362.773 84.9333 362.336 85.104C361.909 85.2747 361.434 85.36 360.912 85.36H358.352ZM365.206 87.936C365.206 87.5947 365.265 87.2907 365.382 87.024C365.5 86.7467 365.66 86.512 365.862 86.32C366.076 86.128 366.326 85.9733 366.614 85.856C366.902 85.7387 367.212 85.6533 367.542 85.6L369.622 85.296C369.857 85.264 370.012 85.1947 370.086 85.088C370.172 84.9813 370.214 84.8587 370.214 84.72C370.214 84.3467 370.081 84.0267 369.814 83.76C369.558 83.4827 369.137 83.344 368.55 83.344C368.017 83.344 367.606 83.4933 367.318 83.792C367.03 84.08 366.86 84.448 366.806 84.896L365.366 84.56C365.409 84.1973 365.516 83.8613 365.686 83.552C365.868 83.2427 366.097 82.9813 366.374 82.768C366.652 82.544 366.972 82.3733 367.334 82.256C367.708 82.128 368.102 82.064 368.518 82.064C369.094 82.064 369.585 82.144 369.99 82.304C370.396 82.4533 370.726 82.656 370.982 82.912C371.238 83.168 371.425 83.4667 371.542 83.808C371.66 84.1493 371.718 84.5067 371.718 84.88V88.736C371.718 89.0773 371.729 89.3493 371.75 89.552C371.772 89.7547 371.793 89.904 371.814 90H370.342C370.321 89.904 370.3 89.776 370.278 89.616C370.268 89.456 370.262 89.2373 370.262 88.96C370.177 89.0987 370.065 89.2427 369.926 89.392C369.788 89.5413 369.617 89.68 369.414 89.808C369.212 89.936 368.972 90.0373 368.694 90.112C368.428 90.1973 368.124 90.24 367.782 90.24C367.388 90.24 367.03 90.176 366.71 90.048C366.401 89.92 366.134 89.7547 365.91 89.552C365.686 89.3387 365.51 89.0933 365.382 88.816C365.265 88.5387 365.206 88.2453 365.206 87.936ZM367.99 88.976C368.3 88.976 368.588 88.9387 368.854 88.864C369.132 88.7787 369.366 88.6507 369.558 88.48C369.761 88.2987 369.921 88.064 370.038 87.776C370.156 87.4773 370.214 87.12 370.214 86.704V86.352L367.862 86.704C367.542 86.7573 367.276 86.88 367.062 87.072C366.849 87.2533 366.742 87.5147 366.742 87.856C366.742 88.144 366.854 88.4053 367.078 88.64C367.302 88.864 367.606 88.976 367.99 88.976ZM374.177 93.216L376.097 89.152L372.785 82.304H374.513L376.913 87.616L379.217 82.304H380.833L375.825 93.216H374.177ZM382.28 90V82.304H383.72V83.328C383.965 82.9013 384.301 82.5867 384.728 82.384C385.165 82.1813 385.608 82.08 386.056 82.08C386.536 82.08 386.984 82.1973 387.4 82.432C387.827 82.6667 388.147 83.0347 388.36 83.536C388.669 82.9813 389.053 82.6027 389.512 82.4C389.971 82.1867 390.445 82.08 390.936 82.08C391.267 82.08 391.592 82.1387 391.912 82.256C392.232 82.3733 392.515 82.5547 392.76 82.8C393.016 83.0347 393.219 83.3387 393.368 83.712C393.517 84.0747 393.592 84.5067 393.592 85.008V90H392.104V85.168C392.104 84.6667 391.971 84.2507 391.704 83.92C391.448 83.5787 391.037 83.408 390.472 83.408C389.939 83.408 389.507 83.5947 389.176 83.968C388.856 84.3307 388.696 84.7893 388.696 85.344V90H387.192V85.168C387.192 84.6667 387.064 84.2507 386.808 83.92C386.552 83.5787 386.136 83.408 385.56 83.408C385.016 83.408 384.579 83.5893 384.248 83.952C383.928 84.3147 383.768 84.784 383.768 85.36V90H382.28ZM401.183 85.36C401.161 84.8053 400.975 84.3413 400.623 83.968C400.271 83.584 399.753 83.392 399.071 83.392C398.751 83.392 398.463 83.4507 398.207 83.568C397.961 83.6747 397.748 83.824 397.567 84.016C397.396 84.1973 397.257 84.4053 397.151 84.64C397.044 84.8747 396.985 85.1147 396.975 85.36H401.183ZM402.703 87.808C402.596 88.1493 402.436 88.4693 402.223 88.768C402.02 89.056 401.769 89.312 401.471 89.536C401.183 89.7493 400.852 89.92 400.479 90.048C400.105 90.176 399.695 90.24 399.247 90.24C398.735 90.24 398.244 90.1493 397.775 89.968C397.305 89.7867 396.889 89.52 396.527 89.168C396.175 88.816 395.892 88.384 395.679 87.872C395.476 87.36 395.375 86.7787 395.375 86.128C395.375 85.52 395.476 84.9707 395.679 84.48C395.881 83.9787 396.148 83.552 396.479 83.2C396.82 82.8373 397.215 82.56 397.663 82.368C398.111 82.1653 398.575 82.064 399.055 82.064C399.641 82.064 400.164 82.1653 400.623 82.368C401.092 82.56 401.481 82.832 401.791 83.184C402.1 83.536 402.335 83.9627 402.495 84.464C402.665 84.9547 402.751 85.4987 402.751 86.096C402.751 86.192 402.745 86.2827 402.735 86.368C402.735 86.4533 402.729 86.5227 402.719 86.576H396.927C396.937 86.9173 397.001 87.232 397.119 87.52C397.236 87.808 397.396 88.0587 397.599 88.272C397.812 88.4747 398.057 88.6347 398.335 88.752C398.623 88.8587 398.927 88.912 399.247 88.912C399.876 88.912 400.356 88.7627 400.687 88.464C401.017 88.1653 401.257 87.7973 401.407 87.36L402.703 87.808ZM406.175 90H404.671V82.304H406.143V83.408C406.42 82.928 406.772 82.5867 407.199 82.384C407.625 82.1813 408.063 82.08 408.511 82.08C408.969 82.08 409.369 82.16 409.711 82.32C410.063 82.4693 410.351 82.6827 410.575 82.96C410.809 83.2267 410.98 83.5467 411.087 83.92C411.204 84.2933 411.263 84.6933 411.263 85.12V90H409.759V85.376C409.759 85.1093 409.727 84.8587 409.663 84.624C409.609 84.3893 409.508 84.1867 409.359 84.016C409.22 83.8347 409.033 83.696 408.799 83.6C408.575 83.4933 408.297 83.44 407.967 83.44C407.668 83.44 407.407 83.4987 407.183 83.616C406.959 83.7227 406.772 83.872 406.623 84.064C406.473 84.256 406.361 84.48 406.287 84.736C406.212 84.992 406.175 85.264 406.175 85.552V90ZM415.671 82.304H417.335V83.664H415.671V87.664C415.671 88.016 415.751 88.2827 415.911 88.464C416.071 88.6347 416.348 88.72 416.743 88.72C416.839 88.72 416.946 88.7147 417.063 88.704C417.18 88.6933 417.271 88.6773 417.335 88.656V89.936C417.271 89.9573 417.148 89.984 416.967 90.016C416.786 90.0587 416.567 90.08 416.311 90.08C415.65 90.08 415.127 89.8933 414.743 89.52C414.359 89.136 414.167 88.592 414.167 87.888V83.664H412.695V82.304H413.111C413.527 82.304 413.826 82.192 414.007 81.968C414.199 81.744 414.295 81.4613 414.295 81.12V79.872H415.671V82.304ZM427.391 88.608C427.913 88.608 428.409 88.5227 428.879 88.352C429.348 88.1707 429.759 87.904 430.111 87.552C430.463 87.2 430.74 86.7573 430.943 86.224C431.145 85.6907 431.247 85.0667 431.247 84.352C431.247 83.6373 431.145 83.0133 430.943 82.48C430.74 81.936 430.463 81.488 430.111 81.136C429.769 80.7733 429.364 80.5013 428.895 80.32C428.436 80.1387 427.945 80.048 427.423 80.048H425.071V88.608H427.391ZM423.503 90V78.656H427.471C428.185 78.656 428.868 78.7787 429.519 79.024C430.18 79.2693 430.756 79.632 431.247 80.112C431.737 80.592 432.127 81.1893 432.415 81.904C432.713 82.608 432.863 83.424 432.863 84.352C432.863 85.28 432.713 86.096 432.415 86.8C432.127 87.504 431.732 88.096 431.231 88.576C430.729 89.0453 430.148 89.4027 429.487 89.648C428.836 89.8827 428.153 90 427.439 90H423.503ZM440.042 85.36C440.021 84.8053 439.834 84.3413 439.482 83.968C439.13 83.584 438.613 83.392 437.93 83.392C437.61 83.392 437.322 83.4507 437.066 83.568C436.821 83.6747 436.607 83.824 436.426 84.016C436.255 84.1973 436.117 84.4053 436.01 84.64C435.903 84.8747 435.845 85.1147 435.834 85.36H440.042ZM441.562 87.808C441.455 88.1493 441.295 88.4693 441.082 88.768C440.879 89.056 440.629 89.312 440.33 89.536C440.042 89.7493 439.711 89.92 439.338 90.048C438.965 90.176 438.554 90.24 438.106 90.24C437.594 90.24 437.103 90.1493 436.634 89.968C436.165 89.7867 435.749 89.52 435.386 89.168C435.034 88.816 434.751 88.384 434.538 87.872C434.335 87.36 434.234 86.7787 434.234 86.128C434.234 85.52 434.335 84.9707 434.538 84.48C434.741 83.9787 435.007 83.552 435.338 83.2C435.679 82.8373 436.074 82.56 436.522 82.368C436.97 82.1653 437.434 82.064 437.914 82.064C438.501 82.064 439.023 82.1653 439.482 82.368C439.951 82.56 440.341 82.832 440.65 83.184C440.959 83.536 441.194 83.9627 441.354 84.464C441.525 84.9547 441.61 85.4987 441.61 86.096C441.61 86.192 441.605 86.2827 441.594 86.368C441.594 86.4533 441.589 86.5227 441.578 86.576H435.786C435.797 86.9173 435.861 87.232 435.978 87.52C436.095 87.808 436.255 88.0587 436.458 88.272C436.671 88.4747 436.917 88.6347 437.194 88.752C437.482 88.8587 437.786 88.912 438.106 88.912C438.735 88.912 439.215 88.7627 439.546 88.464C439.877 88.1653 440.117 87.7973 440.266 87.36L441.562 87.808ZM445.546 82.304H447.21V83.664H445.546V87.664C445.546 88.016 445.626 88.2827 445.786 88.464C445.946 88.6347 446.223 88.72 446.618 88.72C446.714 88.72 446.821 88.7147 446.938 88.704C447.055 88.6933 447.146 88.6773 447.21 88.656V89.936C447.146 89.9573 447.023 89.984 446.842 90.016C446.661 90.0587 446.442 90.08 446.186 90.08C445.525 90.08 445.002 89.8933 444.618 89.52C444.234 89.136 444.042 88.592 444.042 87.888V83.664H442.57V82.304H442.986C443.402 82.304 443.701 82.192 443.882 81.968C444.074 81.744 444.17 81.4613 444.17 81.12V79.872H445.546V82.304ZM448.738 87.936C448.738 87.5947 448.796 87.2907 448.914 87.024C449.031 86.7467 449.191 86.512 449.394 86.32C449.607 86.128 449.858 85.9733 450.146 85.856C450.434 85.7387 450.743 85.6533 451.074 85.6L453.154 85.296C453.388 85.264 453.543 85.1947 453.618 85.088C453.703 84.9813 453.746 84.8587 453.746 84.72C453.746 84.3467 453.612 84.0267 453.346 83.76C453.09 83.4827 452.668 83.344 452.082 83.344C451.548 83.344 451.138 83.4933 450.85 83.792C450.562 84.08 450.391 84.448 450.338 84.896L448.898 84.56C448.94 84.1973 449.047 83.8613 449.218 83.552C449.399 83.2427 449.628 82.9813 449.906 82.768C450.183 82.544 450.503 82.3733 450.866 82.256C451.239 82.128 451.634 82.064 452.049 82.064C452.626 82.064 453.116 82.144 453.522 82.304C453.927 82.4533 454.258 82.656 454.514 82.912C454.77 83.168 454.956 83.4667 455.074 83.808C455.191 84.1493 455.25 84.5067 455.25 84.88V88.736C455.25 89.0773 455.26 89.3493 455.282 89.552C455.303 89.7547 455.324 89.904 455.346 90H453.874C453.852 89.904 453.831 89.776 453.81 89.616C453.799 89.456 453.794 89.2373 453.794 88.96C453.708 89.0987 453.596 89.2427 453.458 89.392C453.319 89.5413 453.148 89.68 452.946 89.808C452.743 89.936 452.503 90.0373 452.226 90.112C451.959 90.1973 451.655 90.24 451.314 90.24C450.919 90.24 450.562 90.176 450.242 90.048C449.932 89.92 449.666 89.7547 449.442 89.552C449.218 89.3387 449.042 89.0933 448.914 88.816C448.796 88.5387 448.738 88.2453 448.738 87.936ZM451.522 88.976C451.831 88.976 452.119 88.9387 452.386 88.864C452.663 88.7787 452.898 88.6507 453.09 88.48C453.292 88.2987 453.452 88.064 453.57 87.776C453.687 87.4773 453.746 87.12 453.746 86.704V86.352L451.394 86.704C451.074 86.7573 450.807 86.88 450.594 87.072C450.38 87.2533 450.274 87.5147 450.274 87.856C450.274 88.144 450.386 88.4053 450.61 88.64C450.834 88.864 451.138 88.976 451.522 88.976ZM457.593 90V82.304H459.081V90H457.593ZM457.257 79.392C457.257 79.0827 457.358 78.8267 457.561 78.624C457.774 78.4107 458.03 78.304 458.329 78.304C458.638 78.304 458.894 78.4107 459.097 78.624C459.31 78.8267 459.417 79.0827 459.417 79.392C459.417 79.6907 459.31 79.9467 459.097 80.16C458.894 80.3627 458.638 80.464 458.329 80.464C458.03 80.464 457.774 80.3627 457.561 80.16C457.358 79.9467 457.257 79.6907 457.257 79.392ZM461.639 90V78.416H463.143V90H461.639ZM466.342 87.52C466.395 87.9253 466.571 88.2667 466.87 88.544C467.169 88.8213 467.59 88.96 468.134 88.96C468.561 88.96 468.886 88.8587 469.11 88.656C469.334 88.4533 469.446 88.2133 469.446 87.936C469.446 87.6907 469.361 87.4827 469.19 87.312C469.019 87.1413 468.774 87.0187 468.454 86.944L467.142 86.656C466.534 86.528 466.059 86.272 465.718 85.888C465.387 85.504 465.222 85.04 465.222 84.496C465.222 84.1653 465.291 83.856 465.43 83.568C465.579 83.2693 465.777 83.008 466.022 82.784C466.267 82.56 466.555 82.384 466.886 82.256C467.227 82.128 467.585 82.064 467.958 82.064C468.481 82.064 468.918 82.1387 469.27 82.288C469.633 82.4373 469.926 82.624 470.15 82.848C470.374 83.0613 470.539 83.2853 470.646 83.52C470.763 83.7547 470.843 83.9573 470.886 84.128L469.558 84.624C469.537 84.528 469.499 84.4053 469.446 84.256C469.393 84.1067 469.307 83.968 469.19 83.84C469.073 83.7013 468.913 83.584 468.71 83.488C468.507 83.392 468.257 83.344 467.958 83.344C467.574 83.344 467.265 83.4507 467.03 83.664C466.795 83.8667 466.678 84.1013 466.678 84.368C466.678 84.8587 466.971 85.168 467.558 85.296L468.806 85.568C469.51 85.7173 470.038 85.9947 470.39 86.4C470.753 86.7947 470.934 87.28 470.934 87.856C470.934 88.1333 470.875 88.4107 470.758 88.688C470.641 88.9653 470.465 89.2213 470.23 89.456C470.006 89.6907 469.718 89.8773 469.366 90.016C469.014 90.1653 468.598 90.24 468.118 90.24C467.585 90.24 467.126 90.1653 466.742 90.016C466.369 89.8667 466.054 89.68 465.798 89.456C465.553 89.232 465.361 88.992 465.222 88.736C465.094 88.4693 465.014 88.224 464.982 88L466.342 87.52Z" fill="#505565"/>
</g>
<defs>
<clipPath id="clip0_7346_3705">
<rect width="117" height="64" fill="white" transform="translate(355 28)"/>
</clipPath>
</defs>
</svg>
