<svg width="53" height="25" viewBox="0 0 53 25" fill="none" xmlns="http://www.w3.org/2000/svg">
<path fill-rule="evenodd" clip-rule="evenodd" d="M31.3554 1.48148V2.46296H33.8924H36.4294V1.48148V0.5H33.8924H31.3554V1.48148ZM6.65166 2.96919C6.47852 2.97452 6.10352 2.99748 5.81833 3.02026C3.66522 3.19215 2.28726 3.61904 1.35011 4.40452C0.69748 4.95156 0.291925 5.62911 0.0857768 6.51696C-0.0223343 6.98255 -0.0297788 8.10644 0.0721472 8.57407C0.256369 9.41911 0.573592 10.0098 1.1393 10.5609C1.7707 11.1761 2.50918 11.538 3.72829 11.8298C4.75515 12.0755 5.84711 12.1751 7.50352 12.1742C10.3669 12.1726 12.0529 11.8771 13.3787 11.1446C13.5779 11.0345 13.7458 10.9444 13.7518 10.9444C13.7578 10.9444 13.7628 11.67 13.7628 12.5567C13.7628 13.8905 13.754 14.1724 13.7118 14.1885C13.6838 14.1993 13.5579 14.1415 13.432 14.0601C12.7561 13.6233 11.937 13.3056 11.1146 13.1614C10.6962 13.088 10.507 13.077 9.67018 13.077C8.86855 13.077 8.61374 13.0907 8.14929 13.159C6.66804 13.3769 5.719 13.7971 4.98055 14.5622C4.37185 15.1927 4.04185 15.9839 3.94592 17.0426C3.807 18.5758 4.20441 19.8767 5.06511 20.7064C5.8397 21.453 6.93555 21.8888 8.46648 22.0591C8.98459 22.1167 10.3973 22.1163 10.8369 22.0584C11.851 21.9247 12.6571 21.635 13.3814 21.144C13.5733 21.0139 13.7543 20.9074 13.7836 20.9074C13.8267 20.9074 13.8368 20.9852 13.8368 21.3148V21.7222H16.3183H18.7998V16.6994V11.6766L18.8831 11.7003C19.2306 11.7991 19.9821 11.9524 20.4294 12.0156C21.3037 12.1393 21.8975 12.1734 23.1702 12.1734C24.4438 12.1734 25.038 12.1392 25.9109 12.0154C28.5977 11.6345 30.071 10.6105 30.5156 8.81481C30.6419 8.30437 30.6568 8.16948 30.6559 7.54048C30.6541 6.30644 30.2976 5.36782 29.5474 4.62252C28.8788 3.95822 27.8989 3.50385 26.5776 3.2453C25.0253 2.94156 22.7388 2.873 20.8924 3.07481C19.2783 3.25126 18.0461 3.64848 17.2321 4.25478C16.9314 4.4787 16.5391 4.87685 16.3597 5.14015C16.0444 5.60278 15.8031 6.26485 15.7223 6.88889C15.669 7.3 15.7006 8.31022 15.7774 8.64815C15.9083 9.22493 16.1717 9.79804 16.4807 10.1784C16.5664 10.284 16.6493 10.3912 16.6648 10.4167C16.6872 10.4533 16.4411 10.463 15.4814 10.463C14.3307 10.463 14.2727 10.4597 14.3262 10.3981C14.6942 9.97511 14.9793 9.31422 15.079 8.65293C15.1085 8.45678 15.1328 8.27548 15.1329 8.25C15.1331 8.21337 14.5531 8.2037 12.356 8.2037H9.57885L9.48852 8.38196C9.39411 8.56826 9.20511 8.76089 8.985 8.89515C8.30392 9.31063 6.5277 9.28015 5.83685 8.84111C5.36959 8.54419 5.13111 7.97756 5.21004 7.35185C5.33241 6.38215 6.03563 5.94444 7.47122 5.94444C8.4967 5.94444 9.19752 6.20978 9.48992 6.70878L9.58463 6.87037H12.3404H15.0961V6.76607C15.0961 6.47363 14.9113 5.7993 14.734 5.44444C14.1615 4.29915 12.9953 3.60574 11.0035 3.22633C9.94541 3.02478 8.1997 2.92163 6.65166 2.96919ZM45.9665 3.15193C44.5241 3.29778 43.5231 3.62452 42.5845 4.25585C42.4151 4.36978 42.2614 4.46296 42.2429 4.46296C42.2244 4.46296 42.2046 4.21711 42.199 3.91667L42.1887 3.37037H39.7257H37.2628L37.2534 7.58333L37.2439 11.7963H39.7601H42.2763L42.2896 9.9537C42.3026 8.14815 42.3046 8.10596 42.388 7.85504C42.4349 7.71422 42.511 7.53922 42.5572 7.46615C42.7687 7.13193 43.1877 6.87015 43.7257 6.73619C44.1344 6.63444 44.874 6.64341 45.2248 6.75437C45.7213 6.91141 45.968 7.12807 46.1372 7.55556L46.2251 7.77778L46.2367 9.78704L46.2483 11.7963H48.7648H51.2813L51.281 9.06481C51.2808 7.48937 51.265 6.19226 51.2436 6C51.073 4.46707 50.071 3.56126 48.1887 3.2383C47.8577 3.18152 47.5363 3.15885 46.9294 3.14948C46.4813 3.14259 46.048 3.14367 45.9665 3.15193ZM31.3801 3.37656C31.3483 3.40833 31.348 11.4209 31.3797 11.9722L31.4037 12.3889H33.8981H36.3924V7.87037V3.35185H33.8986C32.527 3.35185 31.3936 3.36296 31.3801 3.37656ZM24.0937 6.0377C24.7123 6.15719 25.14 6.45096 25.3471 6.89863C25.4365 7.09204 25.4455 7.15267 25.4467 7.57407C25.4479 8.023 25.4443 8.04456 25.3269 8.28448C25.1232 8.701 24.7612 8.95156 24.1627 9.09033C23.3798 9.27185 22.2637 9.20215 21.6985 8.93644C21.4601 8.82437 21.1511 8.52585 21.0433 8.30333C20.8511 7.90707 20.8414 7.28859 21.0209 6.88289C21.1213 6.65585 21.4124 6.36152 21.6603 6.23637C22.1994 5.96422 23.2635 5.87733 24.0937 6.0377ZM28.5035 13.0911C27.7627 13.1546 27.0811 13.2821 26.5859 13.4496C26.0484 13.6314 25.3696 14.0016 24.9257 14.3549C24.5715 14.6367 24.5776 14.6445 24.5776 13.9074V13.2778H22.1146H19.6517V17.5V21.7222H22.1484H24.6452L24.6611 20.5833C24.6785 19.3353 24.7001 19.1818 24.92 18.7429C25.0482 18.487 25.3722 18.1497 25.6234 18.0104C26.0672 17.7644 26.8178 17.5459 27.522 17.4576C28.0523 17.3912 29.5171 17.4018 30.1274 17.4765C30.3993 17.5098 30.6451 17.537 30.6737 17.537C30.7178 17.537 30.7257 17.2017 30.7257 15.3373C30.7257 13.2767 30.7216 13.1359 30.6609 13.112C30.562 13.073 28.9022 13.0569 28.5035 13.0911ZM45.5961 13.0782C44.3583 13.2079 43.4567 13.5082 42.6157 14.0711C42.4459 14.1848 42.285 14.2778 42.2582 14.2778C42.2208 14.2778 42.207 14.1632 42.199 13.787L42.1887 13.2963H39.735C38.3855 13.2963 37.2813 13.3088 37.2813 13.3241C37.2813 13.3394 37.2813 15.8602 37.2813 18.9259V24.5H39.8005H42.3197L42.3174 22.75C42.3155 21.2971 42.3237 20.9982 42.3658 20.9893C42.3937 20.9834 42.5177 21.0461 42.6414 21.1286C43.2091 21.5077 43.9831 21.8197 44.7454 21.9766C45.6992 22.173 47.2291 22.1572 48.372 21.9393C49.1242 21.796 49.6061 21.6246 50.2257 21.2801C50.5251 21.1137 50.671 20.9996 50.9863 20.6853C51.425 20.248 51.6331 19.9346 51.8259 19.4213C52.0549 18.8119 52.1096 18.4653 52.1115 17.6111C52.1134 16.7773 52.068 16.4466 51.8751 15.8876C51.3475 14.3588 50.0704 13.4776 47.9294 13.1652C47.43 13.0923 45.9783 13.0382 45.5961 13.0782ZM31.3923 13.2868C31.3921 13.292 31.388 15.1921 31.383 17.5093L31.3739 21.7222H33.8924H36.4109L36.402 17.5093L36.393 13.2963L33.8927 13.2868C32.5175 13.2816 31.3923 13.2816 31.3923 13.2868ZM12.5406 16.1308C13.1843 16.2816 13.5867 16.5596 13.7854 16.9913C13.8804 17.1977 13.8916 17.2616 13.8905 17.5926C13.8894 17.9196 13.8768 17.9902 13.7832 18.196C13.5763 18.6507 13.1084 18.9496 12.4069 19.0753C12.1854 19.115 11.8654 19.1338 11.4294 19.1329C10.1723 19.1302 9.56889 18.8868 9.26 18.2577C9.15848 18.0509 9.15166 18.009 9.15166 17.5918C9.15166 17.1632 9.15622 17.1374 9.27359 16.8989C9.46518 16.5098 9.73611 16.3088 10.2647 16.1638C10.6828 16.0491 10.9732 16.0215 11.6146 16.0357C12.042 16.0452 12.2786 16.0695 12.5406 16.1308ZM45.6571 16.1267C46.268 16.2643 46.6624 16.5584 46.8431 17.011C46.962 17.309 46.9614 17.8694 46.8417 18.1741C46.6755 18.5974 46.2897 18.8988 45.7352 19.0385C45.2523 19.1601 44.0371 19.1717 43.5406 19.0594C42.6631 18.8608 42.254 18.4671 42.151 17.7222C42.1209 17.5048 42.2153 17.0559 42.3337 16.854C42.5813 16.4314 43.1558 16.143 43.9284 16.0534C44.3497 16.0045 45.2921 16.0445 45.6571 16.1267Z" fill="white"/>
</svg>
