<svg width="200" height="200" viewBox="0 0 200 200" fill="none" xmlns="http://www.w3.org/2000/svg">
<g clip-path="url(#clip0_6486_1663)">
<g opacity="0.1">
<path d="M177.103 8.00804L199.897 157.089C200.634 161.911 197.32 166.423 192.498 167.16L43.4164 189.955C38.5946 190.692 34.0828 187.377 33.3453 182.555L10.5508 33.4741C9.8137 28.6522 13.1285 24.1405 17.9504 23.403L167.032 0.60843C171.854 -0.12868 176.365 3.18616 177.103 8.00804Z" fill="url(#paint0_linear_6486_1663)"/>
<path d="M177.103 8.00804L199.897 157.089C200.634 161.911 197.32 166.423 192.498 167.16L43.4164 189.955C38.5946 190.692 34.0828 187.377 33.3453 182.555L10.5508 33.4741C9.8137 28.6522 13.1285 24.1405 17.9504 23.403L167.032 0.60843C171.854 -0.12868 176.365 3.18616 177.103 8.00804Z" fill="url(#paint1_linear_6486_1663)"/>
</g>
<g opacity="0.2">
<path d="M178.694 19.9045L190.124 170.285C190.494 175.149 186.846 179.396 181.982 179.766L31.6022 191.196C26.7381 191.566 22.4909 187.918 22.1209 183.055L10.6909 32.6745C10.3209 27.8104 13.9686 23.5631 18.8323 23.1932L169.212 11.7631C174.076 11.3932 178.324 15.0405 178.694 19.9045Z" fill="url(#paint2_linear_6486_1663)"/>
<path d="M178.694 19.9045L190.124 170.285C190.494 175.149 186.846 179.396 181.982 179.766L31.6022 191.196C26.7381 191.566 22.4909 187.918 22.1209 183.055L10.6909 32.6745C10.3209 27.8104 13.9686 23.5631 18.8323 23.1932L169.212 11.7631C174.076 11.3932 178.324 15.0405 178.694 19.9045Z" fill="url(#paint3_linear_6486_1663)"/>
</g>
<path opacity="0.3" d="M179.378 31.8875V182.701C179.378 187.579 175.419 191.538 170.541 191.538H19.7273C14.8492 191.538 10.8906 187.579 10.8906 182.701V31.8875C10.8906 27.0094 14.8496 23.0508 19.7273 23.0508H170.541C175.419 23.0504 179.378 27.0098 179.378 31.8875Z" fill="url(#paint4_linear_6486_1663)"/>
<path d="M123.016 199.46L8.17413 190.82C3.30733 190.454 -0.340713 186.212 0.0253023 181.345L11.3394 30.9564C11.7058 26.0896 15.9476 22.4415 20.8144 22.8075L171.203 34.1216C176.07 34.488 179.718 38.7298 179.353 43.5966L170.539 160.745C170.437 162.094 169.81 163.348 168.791 164.238L131.793 196.539C129.376 198.648 126.215 199.701 123.016 199.46Z" fill="url(#paint5_linear_6486_1663)"/>
<path d="M29.0659 83.6453L159.376 93.5254L160.117 83.7507L29.807 73.8706L29.0659 83.6453Z" fill="#141414"/>
<path d="M27.1802 108.528L157.49 118.408L158.231 108.634L27.9213 98.7534L27.1802 108.528Z" fill="#141414"/>
<path d="M25.2891 133.407L121.738 140.72L122.479 130.945L26.0302 123.632L25.2891 133.407Z" fill="#141414"/>
<path d="M131.791 196.539L144.836 185.15L0.555378 174.296L0.0252996 181.346C-0.329388 186.058 3.08585 190.188 7.72178 190.774C7.871 190.793 8.02218 190.808 8.17452 190.82L123.016 199.46C126.214 199.701 129.375 198.648 131.791 196.539Z" fill="url(#paint6_linear_6486_1663)"/>
<path d="M131.791 196.539L144.836 185.15L0.555378 174.296L0.0252996 181.346C-0.329388 186.058 3.08585 190.188 7.72178 190.774C7.871 190.793 8.02218 190.808 8.17452 190.82L123.016 199.46C126.214 199.701 129.375 198.648 131.791 196.539Z" fill="#7CC67A"/>
<path d="M169.929 162.817C169.929 162.817 169.614 163.535 168.511 164.483C168.102 164.835 132.01 196.35 132.01 196.35C129.454 198.581 126.111 199.693 122.729 199.439C125.648 199.659 128.194 197.469 128.413 194.55L130.358 168.701C130.724 163.835 134.966 160.187 139.833 160.553L169.929 162.817Z" fill="url(#paint7_linear_6486_1663)"/>
<path d="M169.929 162.817C169.929 162.817 169.614 163.535 168.511 164.483C168.102 164.835 132.01 196.35 132.01 196.35C129.454 198.581 126.111 199.693 122.729 199.439C125.648 199.659 128.194 197.469 128.413 194.55L130.358 168.701C130.724 163.835 134.966 160.187 139.833 160.553L169.929 162.817Z" fill="url(#paint8_linear_6486_1663)"/>
</g>
<defs>
<linearGradient id="paint0_linear_6486_1663" x1="132.909" y1="115.63" x2="259.93" y2="208.969" gradientUnits="userSpaceOnUse">
<stop stop-color="#B8DE6F"/>
<stop offset="1" stop-color="#8AA753"/>
</linearGradient>
<linearGradient id="paint1_linear_6486_1663" x1="105.222" y1="72.8198" x2="105.222" y2="278.093" gradientUnits="userSpaceOnUse">
<stop stop-color="#A6DAA4"/>
<stop offset="1" stop-color="#4AAF47"/>
</linearGradient>
<linearGradient id="paint2_linear_6486_1663" x1="126.474" y1="123.867" x2="246.06" y2="226.555" gradientUnits="userSpaceOnUse">
<stop stop-color="#FE7695"/>
<stop offset="1" stop-color="#FE547B"/>
</linearGradient>
<linearGradient id="paint3_linear_6486_1663" x1="100.405" y1="80.2106" x2="100.405" y2="274.582" gradientUnits="userSpaceOnUse">
<stop stop-color="#A6DAA4"/>
<stop offset="1" stop-color="#4AAF47"/>
</linearGradient>
<linearGradient id="paint4_linear_6486_1663" x1="95.1322" y1="87.3286" x2="95.1322" y2="269.79" gradientUnits="userSpaceOnUse">
<stop stop-color="#A6DAA4"/>
<stop offset="1" stop-color="#4AAF47"/>
</linearGradient>
<linearGradient id="paint5_linear_6486_1663" x1="89.6868" y1="90.1978" x2="89.6868" y2="281.566" gradientUnits="userSpaceOnUse">
<stop stop-color="#A6DAA4"/>
<stop offset="1" stop-color="#4AAF47"/>
</linearGradient>
<linearGradient id="paint6_linear_6486_1663" x1="72.4165" y1="180.431" x2="72.4165" y2="198.882" gradientUnits="userSpaceOnUse">
<stop stop-color="#FCC344" stop-opacity="0"/>
<stop offset="1" stop-color="#D48000"/>
</linearGradient>
<linearGradient id="paint7_linear_6486_1663" x1="140.009" y1="173.784" x2="166.452" y2="204.528" gradientUnits="userSpaceOnUse">
<stop stop-color="#FCC344"/>
<stop offset="1" stop-color="#D48000"/>
</linearGradient>
<linearGradient id="paint8_linear_6486_1663" x1="146.328" y1="175.386" x2="146.328" y2="217.563" gradientUnits="userSpaceOnUse">
<stop stop-color="#A6DAA4"/>
<stop offset="1" stop-color="#51B24E"/>
</linearGradient>
<clipPath id="clip0_6486_1663">
<rect width="200" height="200" fill="white"/>
</clipPath>
</defs>
</svg>
