<svg width="240" height="240" viewBox="0 0 240 240" fill="none" xmlns="http://www.w3.org/2000/svg">
<path opacity="0.3" d="M40.9387 159.576L31.036 158.185C25.7833 157.446 21.039 154.652 17.8467 150.416C14.6545 146.179 13.2759 140.849 14.0141 135.596L27.9314 36.569C28.6696 31.3163 31.4642 26.572 35.7004 23.3798C39.9367 20.1876 45.2675 18.8089 50.5202 19.5471L208.963 41.8148C214.216 42.5531 218.96 45.3477 222.152 49.5839C225.345 53.8201 226.723 59.1509 225.985 64.4037L212.068 163.43C211.329 168.683 208.535 173.427 204.299 176.62C200.062 179.812 194.732 181.191 189.479 180.452L179.576 179.061" fill="url(#paint0_linear_6486_1124)"/>
<path d="M50 170H40C34.6957 170 29.6086 167.893 25.8579 164.142C22.1071 160.391 20 155.304 20 150V50C20 44.6957 22.1071 39.6086 25.8579 35.8579C29.6086 32.1071 34.6957 30 40 30H200C205.304 30 210.391 32.1071 214.142 35.8579C217.893 39.6086 220 44.6957 220 50V150C220 155.304 217.893 160.391 214.142 164.142C210.391 167.893 205.304 170 200 170H190" fill="url(#paint1_linear_6486_1124)"/>
<path opacity="0.3" d="M110.765 158.451C113.398 154.205 119.236 153.385 122.937 156.74L161.034 191.278C166.06 195.833 163.491 204.183 156.775 205.127L91.576 214.29C84.8593 215.234 80.0892 207.916 83.6639 202.151L110.765 158.451Z" fill="url(#paint2_linear_6486_1124)"/>
<path d="M113.854 157.375C117.053 153.537 122.947 153.537 126.146 157.375L159.065 196.879C163.408 202.089 159.702 210 152.92 210H87.0803C80.2976 210 76.5924 202.089 80.9346 196.879L113.854 157.375Z" fill="url(#paint3_linear_6486_1124)"/>
<defs>
<linearGradient id="paint0_linear_6486_1124" x1="122.306" y1="83.5709" x2="101.206" y2="233.707" gradientUnits="userSpaceOnUse">
<stop stop-color="#A6DAA4"/>
<stop offset="1" stop-color="#4AAF47"/>
</linearGradient>
<linearGradient id="paint1_linear_6486_1124" x1="119.998" y1="83.41" x2="119.998" y2="235.022" gradientUnits="userSpaceOnUse">
<stop stop-color="#A6DAA4"/>
<stop offset="1" stop-color="#4AAF47"/>
</linearGradient>
<linearGradient id="paint2_linear_6486_1124" x1="119.009" y1="172.96" x2="128.052" y2="237.304" gradientUnits="userSpaceOnUse">
<stop stop-color="#4AAF47"/>
<stop offset="1" stop-color="#A6DAA4"/>
</linearGradient>
<linearGradient id="paint3_linear_6486_1124" x1="119.999" y1="172.89" x2="119.999" y2="237.866" gradientUnits="userSpaceOnUse">
<stop stop-color="#A6DAA4"/>
<stop offset="1" stop-color="#4AAF47"/>
</linearGradient>
</defs>
</svg>
