<svg width="65" height="32" viewBox="0 0 65 32" fill="none" xmlns="http://www.w3.org/2000/svg">
<path d="M25.0052 26.2709H23.3382V24.6075H25.0052V26.2709ZM12.0538 28.4464H10.0021V26.7829H12.0538V28.4464ZM6.66789 8.09957V6.43591H8.46327V8.09957H6.66789ZM24.9731 20.4833C23.1232 22.7253 21.2293 24.2197 18.0139 24.2197C14.8242 24.2197 12.3339 22.2505 11.2498 19.3607H7.69386V17.6971H10.8008C10.7071 17.1509 10.658 16.5837 10.658 15.9999V15.9121C10.658 11.4284 13.6974 7.73629 18.0139 7.73629C20.965 7.73629 22.9912 9.18668 24.7529 11.3407L31.1838 6.37365C30.3688 5.25879 29.4352 4.24293 28.3608 3.3646H25.7959C25.0235 2.73353 24.1775 2.17397 23.2489 1.70117H25.8135C23.7044 0.62732 21.1702 0 18.1018 0C12.527 0 7.83191 2.50725 4.9527 6.43591H3.15731C2.76923 6.96547 2.41446 7.52101 2.09452 8.09957H3.8899C2.60838 10.4181 1.89284 13.1081 1.89284 15.9999V16.0879C1.89284 16.6335 1.91914 17.17 1.96825 17.6971H1.82443H0.76916H0V19.3607H0.76916H2.20651C2.76697 22.2272 4.05576 24.7555 5.86842 26.7829H3.81673C4.35289 27.3825 4.93465 27.9385 5.55725 28.4464H7.60892C10.3639 30.6933 13.9118 32 17.7937 32C20.1577 32 22.1731 31.6412 23.9201 31.0059H21.5427V30.6747C22.4072 30.2981 23.2023 29.8505 23.939 29.3423H27.1447C28.8248 28.1824 30.2015 26.7095 31.4038 25.0548L24.9731 20.4833Z" fill="#141414"/>
<path d="M38.1559 8C33.8993 8 31.4033 10.4924 31.4033 13.6523C31.4033 14.4534 31.849 14.8762 32.2947 14.8762C32.7627 14.8762 33.2085 14.4757 33.2085 13.6523C33.2085 11.338 34.8576 9.66898 38.1559 9.66898C40.7633 9.66898 42.3901 11.2935 42.3901 13.7413C42.3901 16.1446 40.8301 17.8581 38.5347 17.8581C37.8884 17.8581 37.309 17.7691 36.8187 17.6134C36.9524 16.5897 37.0639 15.4993 37.0639 14.3421C37.0639 12.9624 36.8856 11.2712 35.749 11.2712C35.281 11.2712 34.8799 11.6273 34.8799 12.1836C34.8799 12.4506 35.1919 13.6968 35.1919 14.3421C35.1919 17.8581 34.2113 20.8401 34.2113 23.0431C34.2113 23.6885 34.657 24 35.125 24C35.6153 24 36.0833 23.6662 36.0833 23.0209C36.0833 21.9972 36.3284 20.7065 36.5736 19.2378C37.1753 19.4159 37.8661 19.4826 38.6238 19.4826C41.9221 19.4826 44.2621 17.146 44.2621 13.7413C44.2621 10.3366 41.833 8 38.1559 8Z" fill="#141414"/>
<path d="M53.5448 18.1223C52.9431 19.6578 51.7842 22.2169 50.4248 22.2169C49.6671 22.2169 49.1768 21.7273 49.1768 20.9039C49.1768 19.591 50.0905 17.7885 50.5808 16.6091C50.7368 16.2308 50.826 15.9192 50.826 15.6967C50.826 15.2071 50.4917 14.8733 50.046 14.8733C49.7562 14.8733 49.5111 15.0514 49.0208 15.0514C47.9288 15.0514 47.4608 14.4728 47.1711 14.0722C46.9928 13.8274 46.8146 13.6494 46.4134 13.6494C45.8786 13.6494 45.5889 14.139 45.5889 14.6063C45.5889 14.8956 45.678 15.2071 45.9231 15.3852C45.7003 16.253 45.3883 17.1654 45.0094 18.1223C44.9426 18.2558 44.9426 18.3671 44.9426 18.4561C44.9426 18.8789 45.2769 19.1459 45.6557 19.1459C45.9454 19.1459 46.2351 18.9902 46.3911 18.5896C46.7254 17.6772 47.0151 16.9206 47.2603 16.1418C47.706 16.342 48.174 16.4978 48.6865 16.5646C48.0403 17.9888 47.3717 19.6133 47.3717 20.9929C47.3717 22.6619 48.5528 23.8413 50.202 23.8413C52.3859 23.8413 53.6562 21.8831 54.9042 18.5896C54.9488 18.5006 54.9711 18.3893 54.9711 18.2781C54.9711 17.8553 54.6368 17.5437 54.2579 17.5437C53.9905 17.5437 53.7008 17.6995 53.5448 18.1223Z" fill="#141414"/>
<path d="M63.1678 18.125C62.7444 19.2376 61.9644 19.9052 61.1398 20.1945C61.2735 19.6604 61.3181 19.1041 61.3181 18.5478C61.3181 16.812 60.5158 15.1876 59.2678 14.7202C58.8444 14.5422 58.3318 14.4087 57.7301 14.4087C54.9667 14.4087 53.3176 17.3016 53.3176 19.9052C53.3176 22.0193 54.4096 23.9553 56.861 23.9553C58.577 23.9553 59.7804 23.0429 60.5158 21.7967C62.1204 21.641 63.7695 20.6173 64.5495 18.6145C64.5941 18.481 64.5941 18.3697 64.5941 18.2807C64.5941 17.8579 64.2598 17.5686 63.8809 17.5686C63.6135 17.5686 63.3015 17.7244 63.1455 18.1472L63.1678 18.125ZM58.5101 16.2334C59.1787 16.2334 59.5575 17.2571 59.5575 18.5033C59.5575 19.1486 59.4907 19.7049 59.3347 20.1945C58.3541 19.8162 57.7301 18.7703 57.7301 17.6354C57.7301 16.8565 58.0198 16.2112 58.5101 16.2112V16.2334ZM56.8833 22.3308C55.8581 22.3308 55.0781 21.5519 55.0781 19.9052C55.0781 18.6368 55.5907 17.1903 56.4821 16.456C56.3484 16.901 56.2593 17.4129 56.2593 17.9024C56.2593 19.3489 57.173 20.8621 58.6215 21.5074C58.1313 22.0638 57.5073 22.3308 56.8833 22.3308Z" fill="#141414"/>
</svg>
