<svg width="40" height="40" viewBox="0 0 40 40" fill="none" xmlns="http://www.w3.org/2000/svg">
<rect width="40" height="40" rx="4" fill="#141414"/>
<path d="M27.1099 27.7032H25.8359V26.4556H27.1099V27.7032ZM17.2119 29.3348H15.644V28.0872H17.2119V29.3348ZM13.0959 14.0747V12.8269H14.468V14.0747H13.0959ZM27.0854 23.3625C25.6716 25.044 24.2242 26.1648 21.7669 26.1648C19.3292 26.1648 17.426 24.6879 16.5975 22.5205H13.8799V21.2728H16.2544C16.1828 20.8632 16.1453 20.4378 16.1453 19.9999V19.9341C16.1453 16.5713 18.4681 13.8022 21.7669 13.8022C24.0223 13.8022 25.5707 14.89 26.9171 16.5055L31.8318 12.7802C31.209 11.9441 30.4955 11.1822 29.6744 10.5234H27.7142C27.1239 10.0501 26.4774 9.63048 25.7677 9.27588H27.7277C26.1158 8.47049 24.1791 8 21.8341 8C17.5736 8 13.9854 9.88044 11.785 12.8269H10.4129C10.1164 13.2241 9.84522 13.6408 9.60071 14.0747H10.9728C9.99342 15.8135 9.44658 17.8311 9.44658 19.9999V20.0659C9.44658 20.4751 9.46668 20.8775 9.50421 21.2728H9.3943H8.58782H8V22.5205H8.58782H9.6863C10.1146 24.6704 11.0996 26.5666 12.4849 28.0872H10.9169C11.3266 28.5369 11.7712 28.9539 12.2471 29.3348H13.815C15.9205 31.02 18.6319 32 21.5986 32C23.4053 32 24.9455 31.7309 26.2807 31.2544H24.4638V31.006C25.1244 30.7236 25.7321 30.3879 26.2951 30.0067H28.745C30.029 29.1368 31.0811 28.0321 32 26.7911L27.0854 23.3625Z" fill="white"/>
</svg>
