<svg width="32" height="32" viewBox="0 0 32 32" fill="none" xmlns="http://www.w3.org/2000/svg">
<g clip-path="url(#clip0_4515_446)">
<path d="M29.897 10.6533C29.3433 10.1938 29.0522 9.48877 29.1191 8.76929C29.2712 7.13062 28.698 5.5293 27.5486 4.37622C26.3992 3.22363 24.803 2.65747 23.1682 2.80127C22.4436 2.86816 21.7466 2.57715 21.2891 2.02173C20.2285 0.737061 18.6699 0 17.0132 0H16.9993C15.3474 0.00439453 13.7944 0.740723 12.7371 2.02173C12.2795 2.5791 11.5801 2.87207 10.8582 2.80127C9.21875 2.65356 7.62817 3.22363 6.47754 4.37622C5.32812 5.5293 4.75488 7.13062 4.90698 8.76929C4.97388 9.4895 4.68433 10.1938 4.12915 10.6533C2.8479 11.7163 2.11328 13.2793 2.11328 14.9412C2.11328 16.6023 2.8479 18.1653 4.12915 19.229C4.68311 19.6885 4.97388 20.3936 4.90698 21.113C4.75488 22.7517 5.32812 24.353 6.47754 25.5056C7.62817 26.6606 9.23193 27.24 10.8574 27.0798C11.5801 27.0103 12.2778 27.3044 12.7371 27.8606C13.7944 29.1414 15.3474 29.8779 16.9993 29.8823H17.0132C18.6699 29.8823 20.2285 29.1453 21.2891 27.8606C21.7483 27.3044 22.4404 27.0134 23.1682 27.0798C24.7925 27.2192 26.3987 26.6587 27.5486 25.5056C28.698 24.353 29.2712 22.7517 29.1191 21.113C29.0522 20.3928 29.342 19.6885 29.897 19.229C31.1785 18.1653 31.9536 16.6023 31.9536 14.9412C31.9536 13.2793 31.1785 11.7163 29.897 10.6533Z" fill="#4AAF47"/>
<path d="M2.8562 32.0003C1.31567 32.0003 0.0625 30.7437 0.0625 29.1988C0.0625 27.6541 1.31567 26.3973 2.8562 26.3973C4.39697 26.3973 5.65015 27.6541 5.65015 29.1988C5.6499 30.7437 4.39673 32.0003 2.8562 32.0003Z" fill="#4AAF47"/>
<path d="M31.9524 14.9412C31.9524 16.6023 31.1772 18.1653 29.8958 19.229C29.3408 19.6885 29.051 20.3928 29.1179 21.113C29.27 22.7517 28.6968 24.353 27.5474 25.5056C26.3975 26.6587 24.7913 27.2192 23.167 27.0798C22.4392 27.0134 21.7471 27.3044 21.2878 27.8606C20.2273 29.1453 18.6687 29.8823 17.012 29.8823H16.998V0H17.012C18.6687 0 20.2273 0.737061 21.2878 2.02173C21.7454 2.57715 22.4424 2.86816 23.167 2.80127C24.8018 2.65747 26.3979 3.22363 27.5474 4.37622C28.6968 5.5293 29.27 7.13062 29.1179 8.76929C29.051 9.48877 29.342 10.1938 29.8958 10.6533C31.1772 11.7163 31.9524 13.2793 31.9524 14.9412Z" fill="#4AAF47"/>
<path d="M9.55273 13.7967H24.4443V15.6739H9.55273V13.7967Z" fill="#F8FCF8"/>
<path d="M9.55273 17.5504H20.7527V19.4276H9.55273V17.5504Z" fill="#F8FCF8"/>
<path d="M9.55273 10.1047H24.4443V11.9819H9.55273V10.1047Z" fill="#F8FCF8"/>
<path d="M16.998 17.5504H20.7522V19.4276H16.998V17.5504Z" fill="#F8FCF8"/>
<path d="M16.998 13.7959H24.4438V15.6731H16.998V13.7959Z" fill="#F8FCF8"/>
<path d="M16.998 10.1047H24.4438V11.9819H16.998V10.1047Z" fill="#F8FCF8"/>
</g>
<defs>
<clipPath id="clip0_4515_446">
<rect width="32" height="32" fill="white"/>
</clipPath>
</defs>
</svg>
