<svg width="420" height="420" viewBox="0 0 420 420" fill="none" xmlns="http://www.w3.org/2000/svg">
<rect width="200" height="200" rx="8" fill="#FAFAFA"/>
<g clip-path="url(#clip0_4358_2252)">
<g opacity="0.1">
<path d="M130.841 63.203L139.959 122.836C140.254 124.764 138.928 126.569 136.999 126.864L77.3667 135.982C75.438 136.277 73.6333 134.951 73.3383 133.022L64.2205 73.3894C63.9256 71.4607 65.2516 69.656 67.1803 69.361L126.813 60.2432C128.742 59.9483 130.546 61.2743 130.841 63.203Z" fill="url(#paint0_linear_4358_2252)"/>
<path d="M130.841 63.203L139.959 122.836C140.254 124.764 138.928 126.569 136.999 126.864L77.3667 135.982C75.438 136.277 73.6333 134.951 73.3383 133.022L64.2205 73.3894C63.9256 71.4607 65.2516 69.656 67.1803 69.361L126.813 60.2432C128.742 59.9483 130.546 61.2743 130.841 63.203Z" fill="url(#paint1_linear_4358_2252)"/>
</g>
<g opacity="0.2">
<path d="M131.477 67.9618L136.049 128.114C136.197 130.059 134.738 131.758 132.793 131.906L72.6407 136.478C70.6951 136.626 68.9962 135.167 68.8482 133.222L64.2762 73.0698C64.1282 71.1242 65.5873 69.4253 67.5328 69.2773L127.685 64.7053C129.63 64.5573 131.329 66.0162 131.477 67.9618Z" fill="url(#paint2_linear_4358_2252)"/>
<path d="M131.477 67.9618L136.049 128.114C136.197 130.059 134.738 131.758 132.793 131.906L72.6407 136.478C70.6951 136.626 68.9962 135.167 68.8482 133.222L64.2762 73.0698C64.1282 71.1242 65.5873 69.4253 67.5328 69.2773L127.685 64.7053C129.63 64.5573 131.329 66.0162 131.477 67.9618Z" fill="url(#paint3_linear_4358_2252)"/>
</g>
<path opacity="0.3" d="M131.751 72.755V133.081C131.751 135.032 130.168 136.615 128.216 136.615H67.891C65.9398 136.615 64.3563 135.032 64.3563 133.081V72.755C64.3563 70.8038 65.9399 69.2203 67.891 69.2203H128.216C130.168 69.2202 131.751 70.8039 131.751 72.755Z" fill="url(#paint4_linear_4358_2252)"/>
<path d="M109.207 139.784L63.2697 136.328C61.3229 136.182 59.8637 134.485 60.0101 132.538L64.5357 72.3827C64.6823 70.436 66.379 68.9768 68.3257 69.1232L128.481 73.6488C130.428 73.7953 131.887 75.4921 131.741 77.4388L128.216 124.298C128.175 124.838 127.924 125.339 127.517 125.695L112.717 138.616C111.75 139.459 110.486 139.88 109.207 139.784Z" fill="url(#paint5_linear_4358_2252)"/>
<path d="M71.6263 93.4578L123.75 97.4098L124.047 93.4999L71.9228 89.5479L71.6263 93.4578Z" fill="#FFF2EB"/>
<path d="M70.8719 103.411L122.996 107.363L123.292 103.453L71.1684 99.5014L70.8719 103.411Z" fill="#FFF2EB"/>
<path d="M70.1156 113.363L108.695 116.288L108.992 112.378L70.4121 109.453L70.1156 113.363Z" fill="#FFF2EB"/>
<path d="M112.717 138.615L117.935 134.06L60.2224 129.718L60.0104 132.538C59.8685 134.423 61.2346 136.075 63.089 136.31C63.1486 136.317 63.2091 136.323 63.2701 136.328L109.207 139.784C110.486 139.88 111.75 139.459 112.717 138.615Z" fill="url(#paint6_linear_4358_2252)"/>
<path d="M112.717 138.615L117.935 134.06L60.2224 129.718L60.0104 132.538C59.8685 134.423 61.2346 136.075 63.089 136.31C63.1486 136.317 63.2091 136.323 63.2701 136.328L109.207 139.784C110.486 139.88 111.75 139.459 112.717 138.615Z" fill="#7CC67A"/>
<path d="M127.972 125.127C127.972 125.127 127.846 125.414 127.405 125.793C127.241 125.934 112.804 138.54 112.804 138.54C111.782 139.432 110.445 139.877 109.091 139.776C110.259 139.864 111.278 138.988 111.365 137.82L112.143 127.481C112.29 125.534 113.986 124.075 115.933 124.221L127.972 125.127Z" fill="url(#paint7_linear_4358_2252)"/>
<path d="M127.972 125.127C127.972 125.127 127.846 125.414 127.405 125.793C127.241 125.934 112.804 138.54 112.804 138.54C111.782 139.432 110.445 139.877 109.091 139.776C110.259 139.864 111.278 138.988 111.365 137.82L112.143 127.481C112.29 125.534 113.986 124.075 115.933 124.221L127.972 125.127Z" fill="url(#paint8_linear_4358_2252)"/>
</g>
<rect x="220" width="200" height="200" rx="8" fill="#FAFAFA"/>
<path opacity="0.3" d="M338.568 66.9466C339.696 65.4488 341.374 64.4608 343.231 64.1998C345.088 63.9388 346.973 64.4262 348.471 65.5548C349.968 66.6835 350.956 68.3608 351.217 70.218C351.478 72.0751 350.991 73.9598 349.862 75.4575L322.911 111.223L310.171 116.38L311.617 102.712L338.568 66.9466Z" fill="url(#paint9_linear_4358_2252)"/>
<path opacity="0.3" d="M319.803 73.4977L296.597 71.0587C294.839 70.8739 293.079 71.3951 291.705 72.5078C290.331 73.6206 289.455 75.2335 289.27 76.992L284.392 123.403C284.207 125.161 284.729 126.921 285.841 128.295C286.954 129.669 288.567 130.545 290.325 130.73L336.736 135.608C338.495 135.793 340.255 135.272 341.629 134.159C343.003 133.046 343.879 131.433 344.063 129.675L346.502 106.469" fill="url(#paint10_linear_4358_2252)"/>
<path opacity="0.6" d="M316.667 73.3334H293.333C291.565 73.3334 289.869 74.0358 288.619 75.286C287.369 76.5362 286.667 78.2319 286.667 80V126.667C286.667 128.435 287.369 130.131 288.619 131.381C289.869 132.631 291.565 133.333 293.333 133.333H340C341.768 133.333 343.464 132.631 344.714 131.381C345.964 130.131 346.667 128.435 346.667 126.667V103.333" fill="url(#paint11_linear_4358_2252)"/>
<path d="M341.667 68.3333C342.993 67.0072 344.791 66.2622 346.667 66.2622C348.542 66.2622 350.341 67.0072 351.667 68.3333C352.993 69.6594 353.738 71.4579 353.738 73.3333C353.738 75.2086 352.993 77.0072 351.667 78.3333L320 110L306.667 113.333L310 99.9999L341.667 68.3333Z" fill="url(#paint12_linear_4358_2252)"/>
<rect y="220" width="200" height="200" rx="8" fill="#FAFAFA"/>
<path opacity="0.3" d="M73.6463 333.192L70.3454 332.728C68.5945 332.482 67.0131 331.551 65.949 330.139C64.885 328.727 64.4254 326.95 64.6715 325.199L69.3106 292.19C69.5567 290.439 70.4882 288.857 71.9003 287.793C73.3123 286.729 75.0893 286.27 76.8402 286.516L129.654 293.938C131.405 294.184 132.987 295.116 134.051 296.528C135.115 297.94 135.575 299.717 135.328 301.468L130.689 334.477C130.443 336.228 129.512 337.809 128.1 338.873C126.688 339.937 124.911 340.397 123.16 340.151L119.859 339.687" fill="url(#paint13_linear_4358_2252)"/>
<path opacity="0.6" d="M76.6666 336.667H73.3333C71.5652 336.667 69.8695 335.964 68.6192 334.714C67.369 333.464 66.6666 331.768 66.6666 330V296.667C66.6666 294.899 67.369 293.203 68.6192 291.953C69.8695 290.702 71.5652 290 73.3333 290H126.667C128.435 290 130.13 290.702 131.381 291.953C132.631 293.203 133.333 294.899 133.333 296.667V330C133.333 331.768 132.631 333.464 131.381 334.714C130.13 335.964 128.435 336.667 126.667 336.667H123.333" fill="url(#paint14_linear_4358_2252)"/>
<path d="M100 330L116.667 350H83.3334L100 330Z" fill="url(#paint15_linear_4358_2252)"/>
<path opacity="0.3" d="M98.6082 330.097L117.896 347.583L84.8872 352.222L98.6082 330.097Z" fill="url(#paint16_linear_4358_2252)"/>
<rect x="220" y="220" width="200" height="200" rx="8" fill="#FAFAFA"/>
<path opacity="0.3" d="M349.014 332.577C348.86 334.338 348.013 335.966 346.658 337.102C345.304 338.239 343.553 338.791 341.792 338.637L301.944 335.151L287.499 347.271L292.148 294.141C292.302 292.379 293.149 290.751 294.504 289.615C295.858 288.478 297.609 287.926 299.37 288.08L345.859 292.148C347.621 292.302 349.249 293.149 350.385 294.504C351.522 295.858 352.074 297.609 351.919 299.37L349.014 332.577Z" fill="url(#paint17_linear_4358_2252)"/>
<path d="M350 330C350 331.768 349.298 333.464 348.047 334.714C346.797 335.964 345.101 336.667 343.333 336.667H303.333L290 350V296.667C290 294.899 290.702 293.203 291.953 291.953C293.203 290.702 294.899 290 296.667 290H343.333C345.101 290 346.797 290.702 348.047 291.953C349.298 293.203 350 294.899 350 296.667V330Z" fill="url(#paint18_linear_4358_2252)"/>
<defs>
<linearGradient id="paint0_linear_4358_2252" x1="113.164" y1="106.252" x2="163.972" y2="143.587" gradientUnits="userSpaceOnUse">
<stop stop-color="#B8DE6F"/>
<stop offset="1" stop-color="#8AA753"/>
</linearGradient>
<linearGradient id="paint1_linear_4358_2252" x1="102.089" y1="89.1277" x2="102.089" y2="171.237" gradientUnits="userSpaceOnUse">
<stop stop-color="#A6DAA4"/>
<stop offset="1" stop-color="#4AAF47"/>
</linearGradient>
<linearGradient id="paint2_linear_4358_2252" x1="110.589" y1="109.547" x2="158.424" y2="150.622" gradientUnits="userSpaceOnUse">
<stop stop-color="#FE7695"/>
<stop offset="1" stop-color="#FE547B"/>
</linearGradient>
<linearGradient id="paint3_linear_4358_2252" x1="100.162" y1="92.0843" x2="100.162" y2="169.833" gradientUnits="userSpaceOnUse">
<stop stop-color="#A6DAA4"/>
<stop offset="1" stop-color="#4AAF47"/>
</linearGradient>
<linearGradient id="paint4_linear_4358_2252" x1="98.0529" y1="94.9315" x2="98.0529" y2="167.916" gradientUnits="userSpaceOnUse">
<stop stop-color="#A6DAA4"/>
<stop offset="1" stop-color="#4AAF47"/>
</linearGradient>
<linearGradient id="paint5_linear_4358_2252" x1="95.8747" y1="96.0793" x2="95.8747" y2="172.627" gradientUnits="userSpaceOnUse">
<stop stop-color="#A6DAA4"/>
<stop offset="1" stop-color="#4AAF47"/>
</linearGradient>
<linearGradient id="paint6_linear_4358_2252" x1="88.9668" y1="132.172" x2="88.9668" y2="139.553" gradientUnits="userSpaceOnUse">
<stop stop-color="#FCC344" stop-opacity="0"/>
<stop offset="1" stop-color="#D48000"/>
</linearGradient>
<linearGradient id="paint7_linear_4358_2252" x1="116.004" y1="129.514" x2="126.581" y2="141.812" gradientUnits="userSpaceOnUse">
<stop stop-color="#FCC344"/>
<stop offset="1" stop-color="#D48000"/>
</linearGradient>
<linearGradient id="paint8_linear_4358_2252" x1="118.531" y1="130.154" x2="118.531" y2="147.025" gradientUnits="userSpaceOnUse">
<stop stop-color="#A6DAA4"/>
<stop offset="1" stop-color="#51B24E"/>
</linearGradient>
<linearGradient id="paint9_linear_4358_2252" x1="329.425" y1="84.2741" x2="336.52" y2="134.753" gradientUnits="userSpaceOnUse">
<stop stop-color="#A6DAA4"/>
<stop offset="1" stop-color="#4AAF47"/>
</linearGradient>
<linearGradient id="paint10_linear_4358_2252" x1="317.409" y1="96.2622" x2="310.617" y2="160.883" gradientUnits="userSpaceOnUse">
<stop stop-color="#A6DAA4"/>
<stop offset="1" stop-color="#4AAF47"/>
</linearGradient>
<linearGradient id="paint11_linear_4358_2252" x1="316.666" y1="96.2234" x2="316.666" y2="161.2" gradientUnits="userSpaceOnUse">
<stop stop-color="#A6DAA4"/>
<stop offset="1" stop-color="#4AAF47"/>
</linearGradient>
<linearGradient id="paint12_linear_4358_2252" x1="330.202" y1="84.2198" x2="330.202" y2="135.195" gradientUnits="userSpaceOnUse">
<stop stop-color="#A6DAA4"/>
<stop offset="1" stop-color="#4AAF47"/>
</linearGradient>
<linearGradient id="paint13_linear_4358_2252" x1="100.769" y1="307.857" x2="93.7354" y2="357.903" gradientUnits="userSpaceOnUse">
<stop stop-color="#A6DAA4"/>
<stop offset="1" stop-color="#4AAF47"/>
</linearGradient>
<linearGradient id="paint14_linear_4358_2252" x1="99.9992" y1="307.803" x2="99.9992" y2="358.341" gradientUnits="userSpaceOnUse">
<stop stop-color="#A6DAA4"/>
<stop offset="1" stop-color="#4AAF47"/>
</linearGradient>
<linearGradient id="paint15_linear_4358_2252" x1="99.9996" y1="337.63" x2="99.9996" y2="359.289" gradientUnits="userSpaceOnUse">
<stop stop-color="#4AAF47"/>
<stop offset="1" stop-color="#A6DAA4"/>
</linearGradient>
<linearGradient id="paint16_linear_4358_2252" x1="99.6697" y1="337.653" x2="102.684" y2="359.101" gradientUnits="userSpaceOnUse">
<stop stop-color="#4AAF47"/>
<stop offset="1" stop-color="#A6DAA4"/>
</linearGradient>
<linearGradient id="paint17_linear_4358_2252" x1="320.619" y1="312.917" x2="314.956" y2="377.646" gradientUnits="userSpaceOnUse">
<stop stop-color="#A6DAA4"/>
<stop offset="1" stop-color="#4AAF47"/>
</linearGradient>
<linearGradient id="paint18_linear_4358_2252" x1="319.999" y1="312.89" x2="319.999" y2="377.866" gradientUnits="userSpaceOnUse">
<stop stop-color="#A6DAA4"/>
<stop offset="1" stop-color="#4AAF47"/>
</linearGradient>
<clipPath id="clip0_4358_2252">
<rect width="80" height="80" fill="white" transform="translate(60 60)"/>
</clipPath>
</defs>
</svg>
