<svg width="48" height="48" viewBox="0 0 48 48" fill="none" xmlns="http://www.w3.org/2000/svg">
<path d="M27.8617 43.6272C37.0587 41.8274 43.9983 33.724 43.9983 24C43.9983 12.9543 35.0441 4 23.9983 4C14.3225 4 6.25152 10.871 4.39844 20" stroke="#4AAF47" stroke-width="4" stroke-linecap="round" stroke-linejoin="round"/>
<path fill-rule="evenodd" clip-rule="evenodd" d="M6.22148 24.0124C5.12368 23.8904 4.13474 24.6812 4.01264 25.779C3.89056 26.8768 4.68152 27.8658 5.77932 27.988C9.3896 28.3894 12.7558 30.0076 15.3244 32.5762C17.893 35.1448 19.5111 38.511 19.9127 42.1212C20.0348 43.219 21.0236 44.01 22.1214 43.888C23.2192 43.7658 24.0102 42.7768 23.8882 41.679C23.3862 37.1662 21.3636 32.9584 18.1528 29.7478C14.9421 26.537 10.7343 24.5144 6.22148 24.0124ZM6.40006 32.1406C5.31776 31.9198 4.26146 32.6182 4.04074 33.7006C3.82 34.7828 4.51844 35.8392 5.60074 36.0598C7.13816 36.3734 8.54944 37.1322 9.65894 38.2416C10.7684 39.3512 11.5272 40.7624 11.8407 42.2998C12.0615 43.3822 13.1178 44.0806 14.2001 43.8598C15.2823 43.6392 15.9808 42.5828 15.7601 41.5006C15.2897 39.1944 14.1516 37.0774 12.4874 35.4132C10.8231 33.749 8.7062 32.6108 6.40006 32.1406ZM6.0004 39.9002C4.89582 39.9002 4.0004 40.7956 4.0004 41.9002C4.0004 43.0048 4.89582 43.9002 6.0004 43.9002H6.0204C7.12496 43.9002 8.0204 43.0048 8.0204 41.9002C8.0204 40.7956 7.12496 39.9002 6.0204 39.9002H6.0004Z" fill="#4AAF47"/>
<path d="M24 12V24L32 28" stroke="#4AAF47" stroke-width="4" stroke-linecap="round" stroke-linejoin="round"/>
</svg>
