<svg width="32" height="32" viewBox="0 0 32 32" fill="none" xmlns="http://www.w3.org/2000/svg">
<g clip-path="url(#clip0_4515_415)">
<path d="M28.4915 29.0023C23.595 32.9995 8.30571 32.9995 3.50906 29.0023C-1.38751 25.0051 -0.887867 7.91708 3.50906 3.42024C7.90598 -1.0766 24.0946 -1.0766 28.4915 3.42024C32.8885 7.91708 33.3881 25.0051 28.4915 29.0023Z" fill="#4AAF47"/>
<path d="M16.0993 22.0074C11.7024 25.5049 6.80583 27.3037 2.20907 27.4036C-1.18857 21.6077 -0.489031 7.51758 3.50817 3.42047C7.10564 -0.276915 18.3977 -0.976455 24.8932 1.32192C26.492 7.91731 23.1943 16.3114 16.0993 22.0074Z" fill="#4AAF47"/>
<path d="M18.1988 20.1081H13.9018V18.0095C13.9018 17.2101 14.0017 16.6105 14.2016 16.3107C14.4014 15.911 14.8012 15.4114 15.5007 14.7118L17.3994 12.7133C17.6992 12.4134 17.7991 11.9138 17.7991 11.4142C17.7991 10.9145 17.6992 10.4149 17.2994 10.1151C16.9996 9.71534 16.5999 9.61542 16.1003 9.61542C15.6006 9.61542 15.2009 9.81525 14.9011 10.215C14.6013 10.6147 14.4014 11.2143 14.3015 11.9138H9.80469C10.0045 10.0152 10.7041 8.51616 11.9032 7.51688C13.1024 6.51759 14.5014 5.91797 16.3002 5.91797C18.0989 5.91797 19.4979 6.41761 20.5972 7.31698C21.6964 8.31626 22.296 9.61535 22.296 11.3142C22.296 12.1136 22.1961 12.6133 21.9962 13.013C21.7964 13.4127 21.6964 13.6126 21.5965 13.8125C21.4965 14.0123 21.2966 14.2122 21.0968 14.512C20.797 14.8118 20.5972 15.0116 20.4973 15.1115C19.9976 15.6112 19.5979 16.0109 19.1982 16.4106C18.7984 16.8104 18.4986 17.1102 18.3987 17.4099C18.2988 17.7097 18.1989 18.0095 18.1989 18.5091V20.1081H18.1988ZM13.6021 23.7056C13.6021 22.3066 14.7013 21.2073 16.1003 21.2073C17.4994 21.2073 18.5986 22.3065 18.5986 23.7056C18.5986 25.1046 17.4994 26.2038 16.1003 26.2038C14.7013 26.2038 13.6021 25.1046 13.6021 23.7056Z" fill="white"/>
</g>
<defs>
<clipPath id="clip0_4515_415">
<rect width="32" height="32" fill="white"/>
</clipPath>
</defs>
</svg>
