<svg width="49" height="49" viewBox="0 0 49 49" fill="none" xmlns="http://www.w3.org/2000/svg">
<g clip-path="url(#clip0)">
<path d="M32.3487 32.5149L36.9032 25.6135L32.3487 24.4401C31.7521 22.6502 30.7377 20.9595 29.3057 19.5276C27.8936 18.1154 26.223 17.0812 24.3932 16.4845L24.3335 16.5443L18.7846 16.3254L16.3183 16.4845C14.4886 17.0812 12.818 18.1154 11.4058 19.5276L4.03278 26.9006C-0.899598 31.833 -0.899598 39.8494 4.03278 44.7818C9.10437 49.8533 17.1196 49.5949 21.9327 44.7818L29.3057 37.4274C30.7378 35.9953 31.7522 34.3049 32.3487 32.5149ZM16.9605 39.8094C14.7329 42.037 11.173 41.9774 9.005 39.8094C6.81725 37.6217 6.81725 34.0417 9.005 31.8539L16.3183 24.5593L20.316 28.5172L24.3336 32.4551L16.9605 39.8094Z" fill="#4A696F"/>
<path d="M29.3057 37.4272L21.9326 44.7815C17.1195 49.5947 9.10431 49.8531 4.03271 44.7815L9.00484 39.8093C11.1728 41.9773 14.7328 42.0369 16.9604 39.8093L24.3334 32.4551L20.316 28.517L29.3057 19.5273C30.7376 20.9593 31.7521 22.6499 32.3487 24.4398L36.9032 25.6133L32.3487 32.5147C31.7521 34.3048 30.7377 35.9952 29.3057 37.4272Z" fill="#384949"/>
<path d="M39.2503 41.4052L37.2614 39.4162C36.7117 38.8666 36.7117 37.977 37.2614 37.4273C37.811 36.8778 38.7006 36.8777 39.2503 37.4273L41.2392 39.4162C41.7888 39.9659 41.7888 40.8555 41.2392 41.4052C40.6894 41.9548 39.7999 41.9548 39.2503 41.4052Z" fill="#D2C5C2"/>
<path d="M9.41687 11.5721L7.42787 9.58315C6.87821 9.03349 6.87821 8.1439 7.42787 7.59434C7.97752 7.04477 8.86712 7.04468 9.41668 7.59434L11.4055 9.58315C11.9552 10.1328 11.9552 11.0224 11.4055 11.572C10.8558 12.1215 9.96643 12.1216 9.41687 11.5721Z" fill="#DFD7D5"/>
<path d="M41.9924 29.231C42.1934 28.4803 42.9645 28.0355 43.7151 28.2365L46.4324 28.9649C47.1831 29.162 47.6259 29.937 47.4269 30.6876C47.2259 31.4384 46.4548 31.8831 45.7041 31.6821L42.9869 30.9538C42.2411 30.7542 41.7912 29.9862 41.9924 29.231Z" fill="#D2C5C2"/>
<path d="M1.23995 18.3116C1.44095 17.5608 2.21205 17.1161 2.9627 17.3171L5.67995 18.0455C6.4278 18.2417 6.87442 19.0167 6.67445 19.7683C6.47345 20.519 5.70236 20.9638 4.9517 20.7628L2.23445 20.0343C1.48867 19.8347 1.03867 19.0667 1.23995 18.3116Z" fill="#DFD7D5"/>
<path d="M28.7987 46.5988L28.0703 43.8816C27.8693 43.1308 28.314 42.3598 29.0648 42.1588C29.8155 41.9578 30.5856 42.3997 30.7875 43.1533L31.5159 45.8706C31.7169 46.6213 31.2721 47.3923 30.5214 47.5933C29.7664 47.7945 28.9983 47.3446 28.7987 46.5988Z" fill="#D2C5C2"/>
<path d="M17.8793 5.84621L17.1508 3.12896C16.9498 2.37821 17.3946 1.60721 18.1453 1.40621C18.8961 1.20718 19.668 1.64705 19.8681 2.40071L20.5965 5.11796C20.7975 5.86871 20.3528 6.63971 19.602 6.84071C18.847 7.04171 18.079 6.5918 17.8793 5.84621Z" fill="#DFD7D5"/>
<path d="M44.6339 4.21776C39.7015 -0.714616 31.6863 -0.734584 26.734 4.21776L19.361 11.5721C17.929 13.004 16.9147 14.6945 16.3179 16.4846C15.4428 19.1099 15.4429 21.9341 16.318 24.5594C16.9147 26.3493 17.929 28.0401 19.361 29.472C20.7533 30.8643 22.4239 31.8984 24.2736 32.515L24.3332 32.4554C26.521 30.2675 26.5209 26.6876 24.3332 24.4998C22.1454 22.3121 22.1454 18.732 24.3332 16.5443L31.7063 9.18998C32.7803 8.11589 34.1725 7.5591 35.6842 7.5591C35.7238 7.51945 36.0619 7.53923 36.1416 7.57898C37.2156 7.57889 38.6275 8.15564 39.6618 9.18998C41.8495 11.3777 41.8496 14.9577 39.6618 17.1455L32.3485 24.44C33.2237 27.0654 33.2237 29.8896 32.3485 32.515C34.1583 31.8985 35.8688 30.8642 37.261 29.4719L44.6341 22.1176C49.5665 17.1852 49.5663 9.15014 44.6339 4.21776Z" fill="#FFD400"/>
<path d="M24.3335 32.455L24.2739 32.5147C22.4243 31.8982 20.7535 30.864 19.3613 29.4717L24.3335 24.4995C26.5213 26.6874 26.5214 30.2673 24.3335 32.455Z" fill="#FF9F00"/>
<path d="M44.6342 22.1176L37.2611 29.472C35.8689 30.8642 34.1585 31.8985 32.3486 32.515C33.2238 29.8896 33.2238 27.0654 32.3486 24.44L39.6619 17.1455C41.8497 14.9577 41.8496 11.3777 39.6619 9.18999L44.6341 4.21777C49.5666 9.15005 49.5668 17.1851 44.6342 22.1176Z" fill="#FF9F00"/>
</g>
<defs>
<clipPath id="clip0">
<rect width="48" height="48" fill="white" transform="translate(0.333496 0.5)"/>
</clipPath>
</defs>
</svg>
