<svg width="49" height="49" viewBox="0 0 49 49" fill="none" xmlns="http://www.w3.org/2000/svg">
<g clip-path="url(#clip0)">
<path d="M46.36 45.8333H10.6457C6.80603 45.8333 3.69336 42.7206 3.69336 38.8809V37.5476C3.69336 33.7079 6.80603 30.5952 10.6457 30.5952H46.36V45.8333Z" fill="#FFEBB7"/>
<path d="M9.02681 32.1189H5.21729V44.3094H9.02681V32.1189Z" fill="#5C546A"/>
<path d="M42.7409 28.3095H2.16943V17.6428H42.7409C43.898 17.6428 44.8361 18.5809 44.8361 19.7381V26.2143C44.8361 27.3714 43.898 28.3095 42.7409 28.3095Z" fill="#FFEBB7"/>
<path d="M46.3601 3.92847H7.50293V15.357H46.3601V3.92847Z" fill="#FFEBB7"/>
<path d="M46.3809 47.357H11.3333C6.29195 47.357 2.19043 43.2559 2.19043 38.2141C2.19043 33.1724 6.29195 29.0713 11.3333 29.0713H46.3809C47.2224 29.0713 47.9047 29.7536 47.9047 30.5951C47.9047 31.4366 47.2224 32.1189 46.3809 32.1189H11.3333C7.97243 32.1189 5.23805 34.8533 5.23805 38.2141C5.23805 41.575 7.97243 44.3094 11.3333 44.3094H46.3809C47.2224 44.3094 47.9047 44.9917 47.9047 45.8332C47.9047 46.6747 47.2224 47.357 46.3809 47.357Z" fill="#00C37A"/>
<path d="M41.8094 29.0713H1.42841C1.00727 29.0713 0.666504 28.7306 0.666504 28.3094C0.666504 27.8883 1.00727 27.5475 1.42841 27.5475H41.8094C43.0697 27.5475 44.0951 26.5222 44.0951 25.2618V20.6904C44.0951 19.43 43.0697 18.4047 41.8094 18.4047H1.42841C1.00727 18.4047 0.666504 18.0639 0.666504 17.6428C0.666504 17.2216 1.00727 16.8809 1.42841 16.8809H41.8094C43.9098 16.8809 45.6189 18.5899 45.6189 20.6904V25.2618C45.6189 27.3623 43.9098 29.0713 41.8094 29.0713Z" fill="#009BCA"/>
<path d="M46.3598 7.73816H11.3122C10.8914 7.73816 10.5503 7.39702 10.5503 6.97626C10.5503 6.5555 10.8914 6.21436 11.3122 6.21436H46.3598V7.73816Z" fill="#E6BE94"/>
<path d="M46.3598 10.7858H11.3122C10.8914 10.7858 10.5503 10.4446 10.5503 10.0239C10.5503 9.60311 10.8914 9.26196 11.3122 9.26196H46.3598V10.7858Z" fill="#E6BE94"/>
<path d="M46.3598 13.8334H11.3122C10.8914 13.8334 10.5503 13.4922 10.5503 13.0715C10.5503 12.6507 10.8914 12.3096 11.3122 12.3096H46.3598V13.8334Z" fill="#E6BE94"/>
<path d="M2.16943 19.9285H41.7885C42.2092 19.9285 42.5504 20.2696 42.5504 20.6904C42.5504 21.1111 42.2092 21.4523 41.7885 21.4523H2.16943C2.16943 21.4523 2.16943 19.9285 2.16943 19.9285Z" fill="#E6BE94"/>
<path d="M2.16943 22.9761H41.7885C42.2092 22.9761 42.5504 23.3172 42.5504 23.738C42.5504 24.1587 42.2092 24.4999 41.7885 24.4999H2.16943C2.16943 24.4999 2.16943 22.9761 2.16943 22.9761Z" fill="#E6BE94"/>
<path d="M2.16943 26.0237H41.7885C42.2092 26.0237 42.5504 26.3648 42.5504 26.7856C42.5504 27.2063 42.2092 27.5475 41.7885 27.5475H2.16943C2.16943 27.5475 2.16943 26.0237 2.16943 26.0237Z" fill="#E6BE94"/>
<path d="M47.1429 16.8809H10.5714C8.05057 16.8809 6 14.8303 6 12.3095V6.21425C6 3.69339 8.05057 1.64282 10.5714 1.64282H47.1429C47.9844 1.64282 48.6667 2.32511 48.6667 3.16663C48.6667 4.00816 47.9844 4.69044 47.1429 4.69044H10.5714C9.73105 4.69044 9.04762 5.37387 9.04762 6.21425V12.3095C9.04762 13.1495 9.73105 13.8333 10.5714 13.8333H47.1429C47.9844 13.8333 48.6667 14.5156 48.6667 15.3571C48.6667 16.1986 47.9844 16.8809 47.1429 16.8809Z" fill="#FF4F19"/>
<path d="M11.3122 42.7856C10.8911 42.7856 10.5503 43.1264 10.5503 43.5476C10.5503 43.9687 10.8911 44.3095 11.3122 44.3095H46.3598V42.7856H11.3122Z" fill="#E6BE94"/>
<path d="M11.3122 39.738C10.8911 39.738 10.5503 40.0788 10.5503 40.4999C10.5503 40.9211 10.8911 41.2618 11.3122 41.2618H46.3598V39.738H11.3122Z" fill="#E6BE94"/>
<path d="M11.3122 36.6904C10.8911 36.6904 10.5503 37.0312 10.5503 37.4523C10.5503 37.8735 10.8911 38.2142 11.3122 38.2142H46.3598V36.6904H11.3122Z" fill="#E6BE94"/>
<path d="M11.3122 33.6428C10.8911 33.6428 10.5503 33.9836 10.5503 34.4047C10.5503 34.8259 10.8911 35.1666 11.3122 35.1666H46.3598V33.6428H11.3122Z" fill="#E6BE94"/>
</g>
<defs>
<clipPath id="clip0">
<rect width="48" height="48" fill="white" transform="translate(0.666504 0.5)"/>
</clipPath>
</defs>
</svg>
