<svg width="44" height="45" viewBox="0 0 44 45" fill="none" xmlns="http://www.w3.org/2000/svg">
<path d="M36.1864 44.25H32.5L31 42.75L31.0223 2.25L42.8326 4.33781C43.0765 4.38092 43.2934 4.5188 43.436 4.72133C43.5786 4.92387 43.6352 5.17459 43.5935 5.41875L37.1106 43.47C37.0734 43.6882 36.9603 43.8862 36.7911 44.0289C36.622 44.1717 36.4078 44.25 36.1864 44.25Z" fill="#FDBF44"/>
<path d="M31.0223 2.25L31 42.75L32.5 44.25H34V2.77641L31.0223 2.25Z" fill="#E6AD3E"/>
<path d="M31.5625 0.75H1.1875C0.669733 0.75 0.25 1.16973 0.25 1.6875V43.3125C0.25 43.8303 0.669733 44.25 1.1875 44.25H31.5625C32.0803 44.25 32.5 43.8303 32.5 43.3125V1.6875C32.5 1.16973 32.0803 0.75 31.5625 0.75Z" fill="#25B1FA"/>
<path d="M3.3999 25.5H26.7999V27H3.3999V25.5Z" fill="#FCFEFF"/>
<path d="M3.3999 29.7H19.5999V31.1999H3.3999V29.7Z" fill="#FCFEFF"/>
<path d="M20.5 29.55H26.5V31.0501H20.5V29.55Z" fill="#FCFEFF"/>
<path d="M3.3999 14.7H26.7999V16.2H3.3999V14.7Z" fill="#FCFEFF"/>
<path d="M3.3999 18.3H19.5999V19.8H3.3999V18.3Z" fill="#FCFEFF"/>
<path d="M20.5 18.3H26.5V19.8H20.5V18.3Z" fill="#FCFEFF"/>
<path d="M3.25 3H7.75V4.5H3.25V3Z" fill="#FCFEFF"/>
<path d="M3.25 6H6.25V7.5H3.25V6Z" fill="#FCFEFF"/>
</svg>
