<svg width="90" height="16" viewBox="0 0 90 16" fill="none" xmlns="http://www.w3.org/2000/svg">
<path d="M18.1277 4.4669C14.8648 4.4669 12.3153 6.93695 12.3153 10.2436C12.3153 13.5503 14.8004 15.9992 18.1277 15.9992C21.455 15.9992 23.9833 13.508 23.9833 10.2225C23.9833 6.95808 21.4982 4.4669 18.1277 4.4669ZM18.1497 13.6161C16.2916 13.6161 14.93 12.177 14.93 10.2444C14.93 8.28985 16.2696 6.85157 18.1277 6.85157C20.0078 6.85157 21.3686 8.3118 21.3686 10.2444C21.3686 12.177 20.0078 13.6161 18.1497 13.6161ZM24.6959 6.98002H26.3166V15.7853H28.9093V4.68155H24.6959V6.98002ZM5.79036 6.85075C7.15194 6.85075 8.23222 7.6882 8.64233 8.93377H11.3867C10.8893 6.27105 8.68555 4.4669 5.81237 4.4669C2.54948 4.4669 0 6.93695 0 10.2444C0 13.5519 2.48508 16 5.81237 16C8.62112 16 10.8681 14.1959 11.3655 11.5112H8.64233C8.25343 12.7568 7.17313 13.6161 5.81157 13.6161C3.93145 13.6161 2.61389 12.177 2.61389 10.2444C2.61471 8.28985 3.91106 6.85075 5.79036 6.85075ZM73.9587 9.17037L72.0574 8.8915C71.1501 8.76305 70.5018 8.46222 70.5018 7.75325C70.5018 6.98003 71.3449 6.59382 72.4896 6.59382C73.7429 6.59382 74.5426 7.13045 74.7153 8.01097H77.2218C76.9405 5.77752 75.2119 4.4677 72.5548 4.4677C69.8104 4.4677 67.9956 5.86373 67.9956 7.83943C67.9956 9.72895 69.1842 10.825 71.5821 11.168L73.4834 11.4469C74.413 11.5754 74.9314 11.9412 74.9314 12.6283C74.9314 13.5088 74.0241 13.8739 72.7709 13.8739C71.2364 13.8739 70.3722 13.2511 70.2426 12.3063H67.693C67.9312 14.4755 69.6377 16 72.7488 16C75.5797 16 77.4589 14.7113 77.4589 12.499C77.4589 10.5233 76.0981 9.49235 73.9587 9.17037ZM27.613 0.107322C26.6623 0.107322 25.9491 0.79435 25.9491 1.73911C25.9491 2.68388 26.6616 3.3709 27.613 3.3709C28.5636 3.3709 29.2771 2.68388 29.2771 1.73911C29.2771 0.79435 28.5636 0.107322 27.613 0.107322ZM65.6621 8.48335C65.6621 6.07835 64.1931 4.4677 61.0817 4.4677C58.1433 4.4677 56.5012 5.9499 56.1768 8.22643H58.7482C58.8778 7.3459 59.5692 6.61578 61.0386 6.61578C62.357 6.61578 63.005 7.19548 63.005 7.90448C63.005 8.8281 61.8162 9.06388 60.3471 9.2143C58.3594 9.42893 55.8963 10.1159 55.8963 12.6933C55.8963 14.691 57.3874 15.9789 59.7643 15.9789C61.6222 15.9789 62.7889 15.2057 63.3728 13.9812C63.4593 15.0764 64.2803 15.7853 65.4257 15.7853H66.9382V13.4877H65.6629V8.48335H65.6621ZM63.1126 11.2754C63.1126 12.7576 61.8162 13.8527 60.2386 13.8527C59.2661 13.8527 58.4451 13.4446 58.4451 12.586C58.4451 11.4908 59.7633 11.19 60.9734 11.0616C62.1401 10.9542 62.7882 10.6965 63.1126 10.2022V11.2754ZM49.3493 4.4669C47.9013 4.4669 46.6915 5.06855 45.8273 6.07755V0H43.2346V15.7853H45.7839V14.3251C46.6481 15.3772 47.8803 16 49.3493 16C52.4605 16 54.816 13.5519 54.816 10.2444C54.816 6.93695 52.4174 4.4669 49.3493 4.4669ZM48.9605 13.6161C47.1023 13.6161 45.7408 12.177 45.7408 10.2444C45.7408 8.3118 47.1237 6.85157 48.9816 6.85157C50.8618 6.85157 52.1792 8.29068 52.1792 10.2444C52.1792 12.177 50.8184 13.6161 48.9605 13.6161ZM37.0331 4.4669C35.3479 4.4669 34.2456 5.15392 33.5976 6.12063V4.68155H31.0259V15.7845H33.6186V9.7501C33.6186 8.05325 34.6989 6.85075 36.2978 6.85075C37.789 6.85075 38.7176 7.90285 38.7176 9.42813V15.7853H41.3103V9.23542C41.3113 6.4426 39.864 4.4669 37.0331 4.4669ZM89.8182 9.87938C89.8182 6.70115 87.4848 4.4677 84.3516 4.4677C81.0243 4.4677 78.5825 6.9589 78.5825 10.2444C78.5825 13.7023 81.1971 16 84.3949 16C87.0959 16 89.2133 14.4105 89.7531 12.1559H87.0518C86.663 13.1438 85.7123 13.7023 84.4373 13.7023C82.7732 13.7023 81.5199 12.6714 81.2394 10.8672H89.8175V9.87938H89.8182ZM81.3911 9.01997C81.8022 7.47355 82.9687 6.7223 84.3084 6.7223C85.7775 6.7223 86.9011 7.55972 87.1604 9.01997H81.3911Z" fill="#0052FF"/>
</svg>
