<svg width="141" height="32" viewBox="0 0 141 32" fill="none" xmlns="http://www.w3.org/2000/svg">
<path d="M39.9058 14.5507C39.8929 14.7167 39.8831 14.9469 39.8767 15.2414C39.8701 15.5358 39.867 15.8395 39.867 16.153C39.867 16.4673 39.8701 16.7737 39.8767 17.0746C39.8831 17.3754 39.8929 17.6091 39.9058 17.7751C39.9316 18.0696 39.9898 18.3506 40.0804 18.6197C40.1707 18.8887 40.3131 19.1253 40.5071 19.3301C40.701 19.5349 40.9466 19.698 41.2442 19.8194C41.5415 19.9409 41.91 20.0016 42.3497 20.0016C42.7891 20.0016 43.1513 19.9508 43.4359 19.8484C43.7202 19.746 43.9529 19.621 44.1342 19.4741C44.3151 19.3272 44.4542 19.1634 44.5512 18.9847C44.6481 18.8054 44.7224 18.6387 44.7742 18.4855C44.8388 18.2807 44.91 18.1366 44.9876 18.0533C45.0651 17.9707 45.2136 17.929 45.4337 17.929H47.9745C48.0909 17.929 48.191 17.9707 48.2752 18.0533C48.3592 18.1366 48.4013 18.2355 48.4013 18.3506C48.3882 19.0038 48.2267 19.6182 47.9163 20.1937C47.606 20.7699 47.1792 21.2685 46.6362 21.6908C46.0932 22.1131 45.456 22.4492 44.7257 22.6985C43.995 22.9485 43.2031 23.0728 42.3497 23.0728C41.4187 23.0728 40.5877 22.9351 39.8573 22.6604C39.1266 22.3857 38.5027 22.0114 37.9856 21.5375C37.4684 21.0644 37.0707 20.5101 36.7928 19.8773C36.5146 19.2439 36.3564 18.5752 36.3176 17.8711C36.2915 17.3464 36.2788 16.7836 36.2788 16.182C36.2788 15.5803 36.2915 15.0048 36.3176 14.4547C36.3434 13.7506 36.4985 13.0819 36.7831 12.4485C37.0674 11.815 37.465 11.2614 37.976 10.7883C38.4866 10.3144 39.1106 9.94085 39.8477 9.66474C40.5846 9.39004 41.4187 9.25234 42.3497 9.25234C43.2031 9.25234 43.995 9.37733 44.7257 9.62661C45.456 9.87659 46.0932 10.212 46.6362 10.6343C47.1792 11.0566 47.606 11.5559 47.9163 12.1314C48.2267 12.7076 48.3882 13.322 48.4013 13.9745C48.4013 14.0896 48.3592 14.1892 48.2752 14.2718C48.191 14.3551 48.0909 14.3968 47.9745 14.3968H45.4337C45.2136 14.3968 45.0651 14.3551 44.9876 14.2718C44.91 14.1892 44.8388 14.0451 44.7742 13.8403C44.7224 13.6864 44.6481 13.5204 44.5512 13.3411C44.4542 13.1617 44.3151 12.9986 44.1342 12.8517C43.9529 12.7048 43.7202 12.5798 43.4359 12.4774C43.1513 12.375 42.7891 12.3235 42.3497 12.3235C41.91 12.3235 41.5415 12.3842 41.2442 12.5064C40.9466 12.6278 40.701 12.7909 40.5071 12.9957C40.3131 13.2005 40.1707 13.4371 40.0804 13.7054C39.9898 13.9745 39.9316 14.2562 39.9058 14.5507Z" fill="black"/>
<path d="M56.4308 12.8997C56.5729 12.8997 56.6957 12.9505 56.7993 13.0529C56.9027 13.156 56.9545 13.2775 56.9545 13.418V15.3564C56.9545 15.4977 56.9027 15.6191 56.7993 15.7215C56.6957 15.8239 56.5729 15.8747 56.4308 15.8747H54.6657C53.4759 15.8747 52.8814 16.4637 52.8814 17.6409V22.363C52.8814 22.5035 52.8295 22.625 52.7262 22.7274C52.6225 22.8298 52.4998 22.8813 52.3576 22.8813H49.9138C49.7713 22.8813 49.6486 22.8298 49.5453 22.7274C49.4417 22.625 49.3901 22.5035 49.3901 22.363V13.418C49.3901 13.2775 49.4417 13.156 49.5453 13.0529C49.6486 12.9505 49.7713 12.8997 49.9138 12.8997H52.1637C52.3058 12.8997 52.4286 12.9505 52.5322 13.0529C52.6356 13.156 52.6874 13.2775 52.6874 13.418V13.8593C52.9847 13.5776 53.3435 13.3474 53.7639 13.168C54.1839 12.9893 54.6852 12.8997 55.2671 12.8997H56.4308Z" fill="black"/>
<path d="M63.8115 26.0674C63.7727 26.1698 63.7079 26.2715 63.6176 26.3746C63.527 26.477 63.4042 26.5278 63.249 26.5278H60.7082C60.5788 26.5278 60.4688 26.4826 60.3784 26.3937C60.2878 26.304 60.2427 26.1952 60.2427 26.0674C60.2427 26.0159 60.2491 25.9714 60.2621 25.9325L61.7361 22.497L57.8182 13.4948C57.8052 13.456 57.7988 13.4115 57.7988 13.3599C57.7988 13.2321 57.844 13.1234 57.9346 13.0337C58.0249 12.9447 58.1349 12.8995 58.2643 12.8995H60.8052C60.9603 12.8995 61.0831 12.9503 61.1738 13.0527C61.264 13.1558 61.3288 13.2575 61.3677 13.3599L63.5206 18.3504L65.6542 13.3599C65.6929 13.2575 65.7575 13.1558 65.8481 13.0527C65.9384 12.9503 66.0615 12.8995 66.2168 12.8995H68.777C68.9061 12.8995 69.016 12.9447 69.1066 13.0337C69.1972 13.1234 69.2422 13.2321 69.2422 13.3599C69.2422 13.4115 69.2358 13.456 69.2229 13.4948L63.8115 26.0674Z" fill="black"/>
<path d="M77.0116 18.4274C77.0509 18.0694 77.0509 17.7113 77.0116 17.3526C76.9731 16.9049 76.824 16.5144 76.5657 16.1818C76.3066 15.8492 75.8735 15.6825 75.2663 15.6825C74.9816 15.6825 74.7354 15.7277 74.5292 15.8167C74.3223 15.9071 74.151 16.025 74.0147 16.1719C73.8792 16.3195 73.7728 16.4826 73.6951 16.662C73.6173 16.8406 73.5659 17.0263 73.5402 17.2184C73.5138 17.4105 73.501 17.6344 73.501 17.89C73.501 18.1463 73.5138 18.3702 73.5402 18.5623C73.5659 18.7536 73.6173 18.9394 73.6951 19.1187C73.7728 19.2981 73.8792 19.4612 74.0147 19.6081C74.151 19.7557 74.3223 19.8736 74.5292 19.9633C74.7354 20.053 74.9816 20.0975 75.2663 20.0975C75.8735 20.0975 76.3066 19.9315 76.5657 19.5982C76.824 19.2656 76.9731 18.8758 77.0116 18.4274ZM76.139 23.0726C75.7636 23.0726 75.434 23.0344 75.15 22.9574C74.8653 22.8812 74.6191 22.7851 74.4129 22.6693C74.206 22.5542 74.0311 22.4299 73.8891 22.2958C73.7464 22.1609 73.6301 22.0366 73.5402 21.9208V26.0095C73.5402 26.15 73.4881 26.2715 73.3847 26.3746C73.2812 26.477 73.1585 26.5278 73.0165 26.5278H70.5726C70.4299 26.5278 70.3071 26.477 70.2037 26.3746C70.1002 26.2715 70.0488 26.15 70.0488 26.0095V13.4178C70.0488 13.2773 70.1002 13.1558 70.2037 13.0527C70.3071 12.9503 70.4299 12.8995 70.5726 12.8995H72.9194C73.0614 12.8995 73.1842 12.9503 73.2876 13.0527C73.3911 13.1558 73.4432 13.2773 73.4432 13.4178V13.8592C73.5595 13.7314 73.6851 13.5972 73.8214 13.456C73.9569 13.3154 74.1246 13.1904 74.3251 13.0817C74.5256 12.9729 74.7718 12.8833 75.0622 12.8126C75.3533 12.7427 75.7123 12.7074 76.139 12.7074C76.7205 12.7074 77.2699 12.7936 77.7872 12.9666C78.3046 13.1396 78.7577 13.4079 79.1451 13.773C79.5333 14.1374 79.8465 14.595 80.0863 15.1451C80.3253 15.6952 80.4573 16.3484 80.4837 17.1033C80.4966 17.2947 80.503 17.5538 80.503 17.8808C80.503 18.2071 80.4966 18.4662 80.4837 18.6576C80.4573 19.4132 80.3253 20.0657 80.0863 20.6158C79.8465 21.1659 79.5333 21.6235 79.1451 21.9886C78.7577 22.353 78.3046 22.6248 77.7872 22.8042C77.2699 22.9829 76.7205 23.0726 76.139 23.0726Z" fill="black"/>
<path d="M86.461 18.9847C86.461 19.2792 86.5253 19.5059 86.6544 19.6662C86.7836 19.8258 86.9969 19.9056 87.2945 19.9056H88.8464C88.9884 19.9056 89.1111 19.9571 89.2146 20.0595C89.3181 20.1619 89.3702 20.2834 89.3702 20.4239V22.363C89.3702 22.5035 89.3181 22.625 89.2146 22.7274C89.1111 22.8298 88.9884 22.8813 88.8464 22.8813H87.004C86.3961 22.8813 85.8431 22.7945 85.3458 22.6222C84.8477 22.4492 84.4239 22.1999 84.0749 21.8736C83.726 21.5467 83.4541 21.1505 83.2601 20.683C83.0667 20.2163 82.9697 19.6881 82.9697 19.0998V15.8747H81.534C81.392 15.8747 81.2693 15.8239 81.1658 15.7215C81.0623 15.6191 81.0103 15.4977 81.0103 15.3564V13.418C81.0103 13.2775 81.0623 13.156 81.1658 13.0529C81.2693 12.9505 81.392 12.8997 81.534 12.8997H82.9697V9.77063C82.9697 9.63011 83.021 9.50865 83.1245 9.40625C83.228 9.30386 83.3507 9.25231 83.4934 9.25231H85.9373C86.0793 9.25231 86.202 9.30386 86.3055 9.40625C86.4089 9.50865 86.461 9.63011 86.461 9.77063V12.8997H88.6523C88.7943 12.8997 88.9171 12.9505 89.0212 13.0529C89.1247 13.156 89.1761 13.2775 89.1761 13.418V15.3564C89.1761 15.4977 89.1247 15.6191 89.0212 15.7215C88.9171 15.8239 88.7943 15.8747 88.6523 15.8747H86.461V18.9847Z" fill="black"/>
<path d="M93.8285 18.5427C93.8671 19.0292 94.0447 19.4099 94.3615 19.6853C94.6784 19.9607 95.0958 20.0977 95.6131 20.0977C96.1297 20.0977 96.5471 19.9607 96.864 19.6853C97.1808 19.4099 97.3584 19.0292 97.397 18.5427C97.4227 18.3506 97.4362 18.1338 97.4362 17.8902C97.4362 17.6473 97.4227 17.4298 97.397 17.2377C97.3584 16.7511 97.1808 16.3712 96.864 16.0958C96.5471 15.8204 96.1297 15.6827 95.6131 15.6827C95.0958 15.6827 94.6784 15.8204 94.3615 16.0958C94.0447 16.3712 93.8671 16.7511 93.8285 17.2377C93.8021 17.4298 93.7893 17.6473 93.7893 17.8902C93.7893 18.1338 93.8021 18.3506 93.8285 18.5427ZM100.888 17.1607C100.901 17.3528 100.908 17.5992 100.908 17.9001C100.908 18.2009 100.901 18.4466 100.888 18.6387C100.863 19.2531 100.72 19.8293 100.462 20.3667C100.203 20.9041 99.8473 21.3744 99.3949 21.7776C98.9425 22.1809 98.3959 22.4972 97.7559 22.7274C97.1158 22.9576 96.4016 23.0728 95.6131 23.0728C94.8239 23.0728 94.1097 22.9576 93.4696 22.7274C92.8296 22.4972 92.283 22.1809 91.8306 21.7776C91.3775 21.3744 91.0221 20.9041 90.7638 20.3667C90.5048 19.8293 90.3628 19.2531 90.3371 18.6387C90.3243 18.4466 90.3179 18.2009 90.3179 17.9001C90.3179 17.5992 90.3243 17.3528 90.3371 17.1607C90.35 16.5464 90.4856 15.9708 90.7446 15.4334C91.0029 14.896 91.3618 14.4257 91.8206 14.0225C92.2794 13.6193 92.8296 13.2994 93.4696 13.0628C94.1097 12.8263 94.8239 12.7076 95.6131 12.7076C96.4016 12.7076 97.1158 12.8263 97.7559 13.0628C98.3959 13.2994 98.9454 13.6193 99.4049 14.0225C99.8637 14.4257 100.219 14.896 100.472 15.4334C100.724 15.9708 100.863 16.5464 100.888 17.1607Z" fill="black"/>
<path d="M112.271 22.363C112.271 22.5035 112.219 22.625 112.116 22.7274C112.012 22.8298 111.889 22.8813 111.747 22.8813H109.303C109.161 22.8813 109.039 22.8298 108.935 22.7274C108.831 22.625 108.78 22.5035 108.78 22.363V17.5067C108.78 16.9559 108.644 16.5145 108.372 16.1819C108.101 15.8493 107.674 15.6827 107.092 15.6827C106.511 15.6827 106.087 15.8493 105.822 16.1819C105.556 16.5145 105.424 16.9559 105.424 17.5067V22.363C105.424 22.5035 105.372 22.625 105.269 22.7274C105.165 22.8298 105.043 22.8813 104.901 22.8813H102.457C102.314 22.8813 102.191 22.8298 102.088 22.7274C101.984 22.625 101.933 22.5035 101.933 22.363V13.418C101.933 13.2775 101.984 13.156 102.088 13.0529C102.191 12.9505 102.314 12.8997 102.457 12.8997H104.804C104.946 12.8997 105.068 12.9505 105.172 13.0529C105.275 13.156 105.327 13.2775 105.327 13.418V13.8593C105.431 13.7315 105.56 13.5974 105.716 13.4561C105.87 13.3156 106.057 13.1906 106.278 13.0819C106.498 12.9731 106.753 12.8834 107.044 12.8128C107.335 12.7429 107.674 12.7076 108.062 12.7076C108.683 12.7076 109.252 12.7937 109.769 12.9667C110.286 13.1398 110.729 13.4053 111.098 13.7633C111.466 14.122 111.754 14.5761 111.961 15.1262C112.168 15.6763 112.271 16.3288 112.271 17.0844V22.363Z" fill="black"/>
<path d="M117.542 20.4818C117.826 20.4818 118.092 20.4338 118.337 20.3378C118.583 20.2417 118.796 20.1104 118.977 19.9444C119.158 19.7778 119.3 19.5829 119.404 19.359C119.507 19.1352 119.559 18.8951 119.559 18.6387L117.775 18.9078C117.426 18.972 117.144 19.0801 116.931 19.234C116.717 19.3873 116.611 19.5864 116.611 19.8293C116.611 20.0722 116.692 20.2417 116.854 20.3378C117.015 20.4338 117.245 20.4818 117.542 20.4818ZM113.12 20.0405C113.12 19.1959 113.446 18.4982 114.099 17.9481C114.752 17.398 115.815 16.9948 117.29 16.7384L119.559 16.355C119.559 16.0478 119.474 15.795 119.307 15.5966C119.139 15.3981 118.848 15.2993 118.434 15.2993C118.137 15.2993 117.907 15.3409 117.746 15.4235C117.584 15.5069 117.464 15.5803 117.387 15.6446C117.27 15.747 117.16 15.8112 117.057 15.8367C116.954 15.8621 116.831 15.8748 116.689 15.8748H114.226C114.096 15.8748 113.989 15.8367 113.905 15.7597C113.821 15.6827 113.785 15.5803 113.798 15.4525C113.825 15.158 113.954 14.8515 114.186 14.5309C114.419 14.2118 114.739 13.9166 115.147 13.6482C115.554 13.3792 116.039 13.156 116.601 12.976C117.164 12.7973 117.775 12.7076 118.434 12.7076C119.223 12.7076 119.908 12.8037 120.49 12.9957C121.072 13.1871 121.554 13.4533 121.936 13.7923C122.317 14.1313 122.598 14.5345 122.779 15.0013C122.959 15.4687 123.051 15.9835 123.051 16.5464V22.3631C123.051 22.5036 122.999 22.625 122.895 22.7274C122.792 22.8298 122.669 22.8814 122.526 22.8814H120.083C119.94 22.8814 119.818 22.8298 119.714 22.7274C119.611 22.625 119.559 22.5036 119.559 22.3631V21.8257C119.249 22.2091 118.864 22.5135 118.405 22.7373C117.946 22.9605 117.341 23.0728 116.592 23.0728C116.035 23.0728 115.541 22.9965 115.108 22.8425C114.674 22.6893 114.313 22.4782 114.022 22.2091C113.73 21.9408 113.508 21.6209 113.352 21.2494C113.197 20.8787 113.12 20.4755 113.12 20.0405Z" fill="black"/>
<path d="M131.079 12.8997C131.221 12.8997 131.344 12.9505 131.447 13.0529C131.551 13.156 131.602 13.2775 131.602 13.418V15.3564C131.602 15.4977 131.551 15.6191 131.447 15.7215C131.344 15.8239 131.221 15.8747 131.079 15.8747H129.314C128.124 15.8747 127.529 16.4637 127.529 17.6409V22.363C127.529 22.5035 127.477 22.625 127.374 22.7274C127.27 22.8298 127.147 22.8813 127.005 22.8813H124.561C124.419 22.8813 124.297 22.8298 124.193 22.7274C124.09 22.625 124.038 22.5035 124.038 22.363V13.418C124.038 13.2775 124.09 13.156 124.193 13.0529C124.297 12.9505 124.419 12.8997 124.561 12.8997H126.811C126.954 12.8997 127.077 12.9505 127.18 13.0529C127.284 13.156 127.335 13.2775 127.335 13.418V13.8593C127.632 13.5776 127.991 13.3474 128.412 13.168C128.832 12.9893 129.333 12.8997 129.915 12.8997H131.079Z" fill="black"/>
<path d="M135.481 26.0674C135.443 26.1698 135.378 26.2715 135.287 26.3746C135.197 26.477 135.074 26.5278 134.919 26.5278H132.378C132.249 26.5278 132.138 26.4826 132.048 26.3937C131.958 26.304 131.913 26.1952 131.913 26.0674C131.913 26.0159 131.919 25.9714 131.932 25.9325L133.406 22.497L129.488 13.4948C129.475 13.456 129.468 13.4115 129.468 13.3599C129.468 13.2321 129.514 13.1234 129.605 13.0337C129.694 12.9447 129.804 12.8995 129.934 12.8995H132.475C132.63 12.8995 132.753 12.9503 132.843 13.0527C132.934 13.1558 132.999 13.2575 133.037 13.3599L135.19 18.3504L137.324 13.3599C137.363 13.2575 137.427 13.1558 137.518 13.0527C137.608 12.9503 137.731 12.8995 137.887 12.8995H140.447C140.576 12.8995 140.686 12.9447 140.777 13.0337C140.867 13.1234 140.912 13.2321 140.912 13.3599C140.912 13.4115 140.906 13.456 140.893 13.4948L135.481 26.0674Z" fill="black"/>
<path d="M26.1273 26.2708H24.4463V24.6071H26.1273V26.2708ZM13.0674 28.4465H10.9985V26.7828H13.0674V28.4465ZM7.6365 8.09904V6.43601H9.44684V8.09904H7.6365ZM26.0951 20.4831C24.2296 22.7252 22.3197 24.2194 19.0775 24.2194C15.8611 24.2194 13.3498 22.2506 12.2569 19.3603H8.67093V17.6973H11.8039C11.7095 17.1507 11.6601 16.5836 11.6601 15.9996V15.9121C11.6601 11.4286 14.7247 7.73607 19.0775 7.73607C22.0532 7.73607 24.0964 9.18654 25.873 11.3403L32.3576 6.37317C31.536 5.25883 30.5946 4.24266 29.5109 3.36489H26.9248C26.1458 2.73358 25.2927 2.17358 24.3563 1.70116H26.9424C24.8156 0.627077 22.2604 0 19.1663 0C13.5446 0 8.81014 2.5069 5.90676 6.43601H4.0965C3.70516 6.96564 3.34739 7.52069 3.02492 8.09904H4.83518C3.54294 10.4181 2.82137 13.1079 2.82137 15.9996V16.0879C2.82137 16.6331 2.84782 17.1698 2.89743 17.6973H2.75249H1.68844H0.912598V19.3603H1.68844H3.13761C3.70299 22.2273 5.00231 24.7554 6.83022 26.7828H4.76132C5.30211 27.3824 5.88867 27.9388 6.51648 28.4465H8.58538C11.3634 30.6936 14.9409 32 18.8553 32C21.2393 32 23.2717 31.6413 25.0331 31.0057H22.636V30.6745C23.5075 30.2981 24.3095 29.8504 25.0521 29.342H28.2847C29.9789 28.1824 31.3672 26.7094 32.5797 25.0548L26.0951 20.4831Z" fill="black"/>
</svg>
