<svg width="593" height="606" viewBox="0 0 593 606" fill="none" xmlns="http://www.w3.org/2000/svg">
<path d="M471.445 497.008H440.035V465.595H471.445V497.008ZM227.408 538.088H188.748V506.675H227.408V538.088ZM125.927 153.902V122.502H159.755V153.902H125.927ZM470.843 387.729C435.985 430.062 400.297 458.275 339.712 458.275C279.611 458.275 232.685 421.102 212.263 366.529H145.256V335.129H203.799C202.035 324.809 201.112 314.102 201.112 303.075V301.422C201.112 216.769 258.377 147.049 339.712 147.049C395.317 147.049 433.496 174.435 466.693 215.102L587.865 121.315C572.512 100.275 554.921 81.0887 534.672 64.5154H486.347C471.791 52.5954 455.849 42.022 438.352 33.1021H486.676C446.935 12.822 399.188 0.982056 341.372 0.982056C236.325 0.982056 147.857 48.3154 93.6049 122.502H59.7784C52.4658 132.502 45.7805 142.982 39.7549 153.902H73.5814C49.4346 197.689 35.9513 248.475 35.9513 303.075V304.742C35.9513 315.035 36.4456 325.169 37.3726 335.129H34.6644H14.7814H0.284088V366.529H14.7814H41.8606C52.4253 420.662 76.7043 468.395 110.861 506.675H72.2013C82.3065 517.996 93.2669 528.502 104.998 538.088H143.657C195.568 580.515 262.417 605.182 335.561 605.182C380.108 605.182 418.085 598.409 451 586.409H406.207V580.155C422.492 573.048 437.479 564.595 451.353 554.996H511.759C543.416 533.102 569.357 505.289 592.015 474.048L470.843 387.729Z" fill="#040606"/>
</svg>
