<svg width="48" height="20" viewBox="0 0 48 20" fill="none" xmlns="http://www.w3.org/2000/svg">
<path d="M3.37331 7.80166C3.37331 7.28338 3.79997 7.08396 4.50675 7.08396C5.52 7.08396 6.79997 7.38973 7.81331 7.93464V4.81123C6.70669 4.37266 5.61337 4.19987 4.50675 4.19987C1.8 4.19987 0 5.60874 0 7.96127C0 11.6294 5.06662 11.0447 5.06662 12.6263C5.06662 13.2376 4.53337 13.437 3.78666 13.437C2.68003 13.437 1.26666 12.9851 0.146625 12.3737V15.537C1.38666 16.0686 2.64 16.2945 3.78666 16.2945C6.55997 16.2945 8.46666 14.9256 8.46666 12.5465C8.45334 8.5859 3.37331 9.29024 3.37331 7.80166ZM12.3866 1.54175L9.13331 2.23282L9.12 12.8788C9.12 14.8459 10.6 16.2945 12.5734 16.2945C13.6667 16.2945 14.4667 16.0951 14.9066 15.8559V13.1579C14.4801 13.3307 12.3733 13.942 12.3733 11.975V7.25675H14.9066V4.42584H12.3733L12.3866 1.54175ZM19.0534 5.40931L18.84 4.42584H15.96V16.0552H19.2934V8.17387C20.0799 7.15049 21.4133 7.33655 21.8267 7.48271V4.42584C21.4 4.26632 19.84 3.97391 19.0534 5.40931ZM22.64 4.42584H25.9867V16.0552H22.64V4.42584ZM22.64 3.41573L25.9867 2.69802V0L22.64 0.704433V3.41563V3.41573ZM32.9467 4.19987C31.64 4.19987 30.8 4.81123 30.3334 5.23662L30.1599 4.41257H27.2267V19.9095L30.56 19.2052L30.5734 15.4439C31.0534 15.7895 31.76 16.2812 32.9333 16.2812C35.32 16.2812 37.4933 14.3673 37.4933 10.1542C37.48 6.29981 35.28 4.19987 32.9467 4.19987ZM32.1467 13.3572C31.36 13.3572 30.8932 13.0782 30.5734 12.7326L30.56 7.80166C30.9067 7.41627 31.3867 7.15049 32.1467 7.15049C33.36 7.15049 34.2 8.50609 34.2 10.2472C34.2 12.0282 33.3733 13.3572 32.1467 13.3572ZM48 10.2871C48 6.88462 46.3466 4.19987 43.1867 4.19987C40.0132 4.19987 38.0933 6.88472 38.0933 10.2605C38.0933 14.261 40.36 16.2812 43.6133 16.2812C45.2 16.2812 46.4 15.9224 47.3066 15.4174V12.7591C46.4001 13.2111 45.36 13.4902 44.04 13.4902C42.7466 13.4902 41.6 13.0383 41.4533 11.47H47.9734C47.9734 11.2971 48 10.606 48 10.2871ZM41.4133 9.02446C41.4133 7.52261 42.3334 6.8979 43.1734 6.8979C43.9867 6.8979 44.8534 7.52261 44.8534 9.02446H41.4133Z" fill="#6772E5"/>
</svg>
